<?xml version="1.0" encoding="UTF-8"?>
<!DOCTYPE svg PUBLIC "-//W3C//DTD SVG 1.1//EN" "http://www.w3.org/Graphics/SVG/1.1/DTD/svg11.dtd">
<svg xmlns="http://www.w3.org/2000/svg" version="1.1" width="512px" height="512px" style="shape-rendering:geometricPrecision; text-rendering:geometricPrecision; image-rendering:optimizeQuality; fill-rule:evenodd; clip-rule:evenodd" xmlns:xlink="http://www.w3.org/1999/xlink">
<g><path style="opacity:0.977" fill="#010101" d="M 91.5,7.5 C 125.466,4.22404 149.632,17.8907 164,48.5C 173.56,79.9565 165.393,105.623 139.5,125.5C 162.296,135.462 179.462,151.462 191,173.5C 222.864,161.95 252.364,166.283 279.5,186.5C 295.319,171.181 310.986,155.681 326.5,140C 299.516,119.052 290.016,91.8851 298,58.5C 312.174,20.9844 339.341,4.15105 379.5,8C 412,15.1667 431.833,35 439,67.5C 442.729,104.554 427.896,131.054 394.5,147C 385.812,150.371 376.812,151.871 367.5,151.5C 359.017,151.497 350.683,150.663 342.5,149C 326,165.5 309.5,182 293,198.5C 296.918,205.653 300.918,212.987 305,220.5C 308.585,229.173 310.752,238.173 311.5,247.5C 327.5,247.5 343.5,247.5 359.5,247.5C 365.262,212.904 385.262,191.738 419.5,184C 456.554,180.271 483.054,195.104 499,228.5C 510.523,264.929 501.023,294.429 470.5,317C 444.5,331 418.5,331 392.5,317C 373.246,304.337 362.246,286.504 359.5,263.5C 343.5,263.5 327.5,263.5 311.5,263.5C 310.752,272.827 308.585,281.827 305,290.5C 300.918,298.013 296.918,305.347 293,312.5C 309.5,329 326,345.5 342.5,362C 376.678,353.171 404.844,362.338 427,389.5C 440.532,411.183 443.199,434.183 435,458.5C 419.054,491.896 392.554,506.729 355.5,503C 323,495.833 303.167,476 296,443.5C 292.3,413.411 302.466,389.244 326.5,371C 311.167,355.667 295.833,340.333 280.5,325C 271.235,330.966 261.235,335.966 250.5,340C 216.009,349.335 185.842,341.835 160,317.5C 159.667,371.5 159.333,425.5 159,479.5C 155.833,492 148,499.833 135.5,503C 123.039,505.566 112.372,502.399 103.5,493.5C 94.6277,502.399 83.9611,505.566 71.5,503C 59,499.833 51.1667,492 48,479.5C 47.5,428.834 47.3333,378.168 47.5,327.5C 27.5357,330.283 14.369,322.283 8,303.5C 7.33333,269.5 7.33333,235.5 8,201.5C 14.5978,165.743 34.4311,140.409 67.5,125.5C 41.6066,105.623 33.4399,79.9565 43,48.5C 52.2214,26.4916 68.388,12.8249 91.5,7.5 Z"/></g>
<g><path style="opacity:1" fill="#eeceb3" d="M 94.5,23.5 C 123.615,21.7946 142.449,34.7946 151,62.5C 153.599,90.8722 141.432,109.372 114.5,118C 85.3184,122.328 66.1517,110.495 57,82.5C 53.0113,52.327 65.5113,32.6604 94.5,23.5 Z"/></g>
<g><path style="opacity:1" fill="#e2e5e9" d="M 358.5,23.5 C 390.26,21.7983 411.427,35.7983 422,65.5C 425.503,82.1765 422.503,97.5098 413,111.5C 407.246,103.58 400.08,97.2469 391.5,92.5C 403.845,74.7759 401.845,58.9426 385.5,45C 368.179,35.3849 353.346,38.2182 341,53.5C 333.157,67.0485 333.99,80.0485 343.5,92.5C 334.895,97.276 327.728,103.609 322,111.5C 305.915,85.1086 308.415,60.6086 329.5,38C 338.169,30.9987 347.836,26.1654 358.5,23.5 Z"/></g>
<g><path style="opacity:1" fill="#ebccb0" d="M 362.5,55.5 C 378.678,55.1677 385.178,62.8344 382,78.5C 376.039,87.2827 368.206,89.4493 358.5,85C 348.083,73.5007 349.416,63.6674 362.5,55.5 Z"/></g>
<g><path style="opacity:1" fill="#b1d97d" d="M 359.5,103.5 C 375.305,101.736 388.471,106.736 399,118.5C 400.751,120.212 401.418,122.212 401,124.5C 378.614,138.951 356.28,138.951 334,124.5C 333.582,122.212 334.249,120.212 336,118.5C 342.57,111.311 350.403,106.311 359.5,103.5 Z"/></g>
<g><path style="opacity:1" fill="#ea664b" d="M 101.5,135.5 C 102.833,135.5 104.167,135.5 105.5,135.5C 107.521,157.13 108.688,178.797 109,200.5C 107.414,203.341 105.58,206.007 103.5,208.5C 98.7928,203.968 96.7928,198.468 97.5,192C 98.7154,173.151 100.049,154.318 101.5,135.5 Z"/></g>
<g><path style="opacity:1" fill="#c4c8d0" d="M 83.5,137.5 C 84.6491,137.791 85.3158,138.624 85.5,140C 84.6433,148.826 83.8099,157.659 83,166.5C 80.0433,157.674 77.8766,148.674 76.5,139.5C 79.0673,139.279 81.4006,138.612 83.5,137.5 Z"/></g>
<g><path style="opacity:1" fill="#c4c9d0" d="M 121.5,137.5 C 124.132,138.327 126.798,139.16 129.5,140C 130.059,140.725 130.392,141.558 130.5,142.5C 128.643,150.906 126.476,159.239 124,167.5C 122.93,157.515 122.096,147.515 121.5,137.5 Z"/></g>
<g><path style="opacity:1" fill="#fd816d" d="M 60.5,147.5 C 68.37,180.574 82.7033,210.574 103.5,237.5C 123.978,210.875 138.312,181.208 146.5,148.5C 159.131,156.634 168.798,167.468 175.5,181C 170.354,185.477 165.187,189.977 160,194.5C 159.5,188.175 159.334,181.842 159.5,175.5C 154.167,175.5 148.833,175.5 143.5,175.5C 143.667,190.504 143.5,205.504 143,220.5C 133.542,242.288 133.042,264.288 141.5,286.5C 115.509,287.5 89.5085,287.833 63.5,287.5C 63.5,250.167 63.5,212.833 63.5,175.5C 58.1667,175.5 52.8333,175.5 47.5,175.5C 47.5,220.833 47.5,266.167 47.5,311.5C 36.7172,313.856 28.8838,310.19 24,300.5C 23.3333,268.5 23.3333,236.5 24,204.5C 28.3076,180.38 40.4742,161.38 60.5,147.5 Z"/></g>
<g><path style="opacity:1" fill="#f9d56f" d="M 212.5,183.5 C 248.28,180.966 274.113,195.632 290,227.5C 301.766,262.605 293.266,291.772 264.5,315C 225.824,336.597 192.324,330.431 164,296.5C 143.142,260.132 147.975,227.632 178.5,199C 188.795,191.349 200.129,186.182 212.5,183.5 Z"/></g>
<g><path style="opacity:1" fill="#010100" d="M 215.5,199.5 C 220.833,199.5 226.167,199.5 231.5,199.5C 231.5,204.833 231.5,210.167 231.5,215.5C 245.886,217.219 253.886,225.219 255.5,239.5C 250.167,239.5 244.833,239.5 239.5,239.5C 239.456,235.91 237.789,233.41 234.5,232C 225.506,231.5 216.506,231.334 207.5,231.5C 207.335,235.182 207.501,238.848 208,242.5C 208.465,243.931 209.299,245.097 210.5,246C 247.263,242.6 262.263,259.1 255.5,295.5C 247.5,295.5 239.5,295.5 231.5,295.5C 231.5,300.833 231.5,306.167 231.5,311.5C 226.167,311.5 220.833,311.5 215.5,311.5C 215.5,306.167 215.5,300.833 215.5,295.5C 201.212,293.879 193.212,285.879 191.5,271.5C 196.833,271.5 202.167,271.5 207.5,271.5C 207.544,275.09 209.211,277.59 212.5,279C 221.494,279.5 230.494,279.666 239.5,279.5C 239.665,275.818 239.499,272.152 239,268.5C 238.535,267.069 237.701,265.903 236.5,265C 199.861,268.519 184.861,252.019 191.5,215.5C 199.5,215.5 207.5,215.5 215.5,215.5C 215.5,210.167 215.5,204.833 215.5,199.5 Z"/></g>
<g><path style="opacity:1" fill="#e2e5e9" d="M 422.5,199.5 C 454.26,197.798 475.427,211.798 486,241.5C 489.503,258.176 486.503,273.51 477,287.5C 471.246,279.58 464.08,273.247 455.5,268.5C 467.845,250.776 465.845,234.943 449.5,221C 432.179,211.385 417.346,214.218 405,229.5C 397.157,243.048 397.99,256.048 407.5,268.5C 398.895,273.276 391.728,279.609 386,287.5C 372.146,265.855 372.146,244.188 386,222.5C 395.399,210.387 407.566,202.72 422.5,199.5 Z"/></g>
<g><path style="opacity:1" fill="#ebccb0" d="M 426.5,231.5 C 442.678,231.168 449.178,238.834 446,254.5C 440.039,263.283 432.206,265.449 422.5,261C 412.083,249.501 413.416,239.667 426.5,231.5 Z"/></g>
<g><path style="opacity:1" fill="#4dbee5" d="M 423.5,279.5 C 435.545,278.428 446.545,281.261 456.5,288C 460.27,291.097 463.27,294.764 465.5,299C 459.538,304.482 452.538,308.149 444.5,310C 427.776,313.985 412.443,310.985 398.5,301C 397.483,299.951 397.316,298.784 398,297.5C 404.488,288.492 412.988,282.492 423.5,279.5 Z"/></g>
<g><path style="opacity:1" fill="#828e9a" d="M 63.5,303.5 C 75.8513,303.168 88.1847,303.501 100.5,304.5C 98.7169,307.673 97.2169,311.006 96,314.5C 95.6667,368.167 95.3333,421.833 95,475.5C 90.0948,486.915 81.9282,490.082 70.5,485C 67.1309,482.635 64.9643,479.468 64,475.5C 63.5,418.168 63.3333,360.834 63.5,303.5 Z"/></g>
<g><path style="opacity:1" fill="#828e9a" d="M 122.5,303.5 C 129.5,303.5 136.5,303.5 143.5,303.5C 143.667,360.834 143.5,418.168 143,475.5C 138.095,486.915 129.928,490.082 118.5,485C 115.131,482.635 112.964,479.468 112,475.5C 111.333,422.5 111.333,369.5 112,316.5C 114.955,311.713 118.455,307.38 122.5,303.5 Z"/></g>
<g><path style="opacity:1" fill="#e2e5e9" d="M 358.5,375.5 C 390.26,373.798 411.427,387.798 422,417.5C 425.503,434.176 422.503,449.51 413,463.5C 407.246,455.58 400.08,449.247 391.5,444.5C 403.845,426.776 401.845,410.943 385.5,397C 368.179,387.385 353.346,390.218 341,405.5C 333.157,419.048 333.99,432.048 343.5,444.5C 334.895,449.276 327.728,455.609 322,463.5C 308.146,441.855 308.146,420.188 322,398.5C 331.399,386.387 343.566,378.72 358.5,375.5 Z"/></g>
<g><path style="opacity:1" fill="#ebccb0" d="M 362.5,407.5 C 378.678,407.168 385.178,414.834 382,430.5C 376.039,439.283 368.206,441.449 358.5,437C 348.083,425.501 349.416,415.667 362.5,407.5 Z"/></g>
<g><path style="opacity:1" fill="#b1d97d" d="M 359.5,455.5 C 371.545,454.428 382.545,457.261 392.5,464C 396.27,467.097 399.27,470.764 401.5,475C 395.538,480.482 388.538,484.149 380.5,486C 363.776,489.985 348.443,486.985 334.5,477C 333.483,475.951 333.316,474.784 334,473.5C 340.488,464.492 348.988,458.492 359.5,455.5 Z"/></g>
</svg>
