<!DOCTYPE svg PUBLIC "-//W3C//DTD SVG 1.1//EN" "http://www.w3.org/Graphics/SVG/1.1/DTD/svg11.dtd">

<!-- Uploaded to: SVG Repo, www.svgrepo.com, Transformed by: SVG Repo Mixer Tools -->
<svg version="1.1" id="Layer_1" xmlns="http://www.w3.org/2000/svg" xmlns:xlink="http://www.w3.org/1999/xlink" viewBox="0 0 488 488" xml:space="preserve" width="800px" height="800px" fill="#000000">

<g id="SVGRepo_bgCarrier" stroke-width="0"/>

<g id="SVGRepo_tracerCarrier" stroke-linecap="round" stroke-linejoin="round"/>

<g id="SVGRepo_iconCarrier"> <g> <rect x="344" y="404" style="fill:#a2fd81;" width="96" height="32"/> <rect x="344" y="356" style="fill:#a2fd81;" width="96" height="32"/> <rect x="344" y="308" style="fill:#a2fd81;" width="96" height="32"/> <rect x="344" y="260" style="fill:#a2fd81;" width="96" height="32"/> <rect x="344" y="212" style="fill:#a2fd81;" width="96" height="32"/> <rect x="344" y="164" style="fill:#a2fd81;" width="96" height="32"/> <rect x="192" y="212" style="fill:#a2fd81;" width="96" height="32"/> <rect x="192" y="260" style="fill:#a2fd81;" width="96" height="32"/> <rect x="192" y="308" style="fill:#a2fd81;" width="96" height="32"/> <rect x="192" y="356" style="fill:#a2fd81;" width="96" height="32"/> <rect x="192" y="404" style="fill:#a2fd81;" width="96" height="32"/> <rect x="40" y="404" style="fill:#a2fd81;" width="96" height="32"/> <rect x="40" y="356" style="fill:#a2fd81;" width="96" height="32"/> </g> <g> <rect x="472" y="436" style="fill:#42b007;" width="16" height="16"/> <path style="fill:#42b007;" d="M464,436v16h-16H336h-40H184h-40H32H0v-16h24v-40v-48v-48c0-4,3.2-8,8-8h112c4,0,8,4,8,8v48v48v40 h24v-40v-48v-48v-48v-48c0-4,4-8,8-8h112c4,0,8,4,8,8v48v48v48v48v40h24v-40v-48v-48v-48v-48v-48c0-4,4-8,8-8h112c4,0,8,4,8,8v48 v48v48v48v48v40H464z M440,436v-32h-96v32H440z M440,388v-32h-96v32H440z M440,340v-32h-96v32H440z M440,292v-32h-96v32H440z M440,244v-32h-96v32H440z M440,196v-32h-96v32H440z M288,436v-32h-96v32H288z M288,388v-32h-96v32H288z M288,340v-32h-96v32H288z M288,292v-32h-96v32H288z M288,244v-32h-96v32H288z M136,436v-32H40v32H136z M136,388v-32H40v32H136z M136,340v-32H40v32H136z"/> <path style="fill:#42b007;" d="M440,50.4c0,0.8,0,2.4,0,3.2l0,0l-8,40l-16-3.2l4-21.6l-112,70.4c-0.8,0.8-2.4,0.8-4,0.8H162.4 L20,219.2l-8-13.6l144-80c1.6-1.6,2.4-1.6,4-1.6h141.6l108.8-68l-20-4l3.2-16l40,8C436.8,44.8,439.2,47.2,440,50.4z"/> </g> <rect x="40" y="308" style="fill:#a2fd81;" width="96" height="32"/> <g> <path style="fill:#78edb6;" d="M136,308l-4,11.2c-2.4,8-9.6,12.8-17.6,13.6L40,340h96V308z"/> <path style="fill:#78edb6;" d="M136,356l-4,11.2c-2.4,8-9.6,12.8-17.6,13.6L40,388h96V356z"/> <path style="fill:#78edb6;" d="M136,404l-4,11.2c-2.4,8-9.6,12.8-17.6,13.6L40,436h96V404z"/> <path style="fill:#78edb6;" d="M288,308l-4,11.2c-2.4,8-9.6,12.8-17.6,13.6L192,340h96V308z"/> <path style="fill:#78edb6;" d="M288,356l-4,11.2c-2.4,8-9.6,12.8-17.6,13.6L192,388h96V356z"/> <path style="fill:#78edb6;" d="M288,212l-4,11.2c-2.4,8-9.6,12.8-17.6,13.6L192,244h96V212z"/> <path style="fill:#78edb6;" d="M288,260l-4,11.2c-2.4,8-9.6,12.8-17.6,13.6L192,292h96V260z"/> <path style="fill:#78edb6;" d="M288,404l-4,11.2c-2.4,8-9.6,12.8-17.6,13.6L192,436h96V404z"/> <path style="fill:#78edb6;" d="M440,308l-4,11.2c-2.4,8-9.6,12.8-17.6,13.6L344,340h96V308z"/> <path style="fill:#78edb6;" d="M440,356l-4,11.2c-2.4,8-9.6,12.8-17.6,13.6L344,388h96V356z"/> <path style="fill:#78edb6;" d="M440,212l-4,11.2c-2.4,8-9.6,12.8-17.6,13.6L344,244h96V212z"/> <path style="fill:#78edb6;" d="M440,164l-4,11.2c-2.4,8-9.6,12.8-17.6,13.6L344,196h96V164z"/> <path style="fill:#78edb6;" d="M440,260l-4,11.2c-2.4,8-9.6,12.8-17.6,13.6L344,292h96V260z"/> <path style="fill:#78edb6;" d="M440,404l-4,11.2c-2.4,8-9.6,12.8-17.6,13.6L344,436h96V404z"/> </g> </g>

</svg>