<svg width="38" height="38" viewBox="0 0 38 38" fill="none" xmlns="http://www.w3.org/2000/svg">
<g clip-path="url(#clip0_1529_1074)">
<path d="M34.6046 38.0134H3.39396C2.77837 38.0134 2.2793 37.5214 2.2793 36.9146V14.7922C2.2793 14.1853 2.77837 13.6934 3.39396 13.6934H34.6046C35.2202 13.6934 35.7193 14.1853 35.7193 14.7922V36.9146C35.7193 37.5214 35.2202 38.0134 34.6046 38.0134Z" fill="#FF8243"/>
<path d="M36.8125 15.5859H1.18749C0.81803 15.5859 0.472691 15.4027 0.26562 15.0968C0.0584757 14.7909 0.0166906 14.4022 0.153847 14.0592L3.1226 6.63731C3.29167 6.21463 3.70098 5.9375 4.15624 5.9375H33.8437C34.299 5.9375 34.7083 6.21463 34.8774 6.63731L37.8461 14.0592C37.9834 14.4022 37.9415 14.7909 37.7344 15.0968C37.5273 15.4027 37.1819 15.5859 36.8125 15.5859Z" fill="#FF8243"/>
<path d="M0.0742188 14.4727V16.9961C0.0742188 19.0866 1.76886 20.7812 3.85938 20.7812C5.94989 20.7812 7.64453 19.0866 7.64453 16.9961V14.4727H0.0742188Z" fill="#FFC997"/>
<path d="M30.3555 14.4727V16.9961C30.3555 19.0866 32.0501 20.7812 34.1406 20.7812C36.2311 20.7812 37.9258 19.0866 37.9258 16.9961V14.4727H30.3555Z" fill="#FFC997"/>
<path d="M22.7852 14.4727V16.9961C22.7852 19.0866 24.4798 20.7812 26.5703 20.7812C28.6608 20.7812 30.3555 19.0866 30.3555 16.9961V14.4727H22.7852Z" fill="#FFC997"/>
<path d="M15.2148 14.4727V16.9961C15.2148 19.0866 16.9095 20.7812 19 20.7812C21.0905 20.7812 22.7852 19.0866 22.7852 16.9961V14.4727H15.2148Z" fill="#FFC997"/>
<path d="M7.64453 14.4727V16.9961C7.64453 19.0866 9.33917 20.7812 11.4297 20.7812C13.5202 20.7812 15.2148 19.0866 15.2148 16.9961V14.4727H7.64453Z" fill="#FFC997"/>
<path d="M29.7617 11.1328H8.23828C7.62345 11.1328 7.125 10.6344 7.125 10.0195V1.11328C7.125 0.498453 7.62345 0 8.23828 0H29.7617C30.3765 0 30.875 0.498453 30.875 1.11328V10.0195C30.875 10.6344 30.3765 11.1328 29.7617 11.1328Z" fill="#FFC997"/>
<path d="M25.3086 6.67969H12.6914C12.0766 6.67969 11.5781 6.18123 11.5781 5.56641C11.5781 4.95158 12.0766 4.45312 12.6914 4.45312H25.3086C25.9234 4.45312 26.4219 4.95158 26.4219 5.56641C26.4219 6.18123 25.9234 6.67969 25.3086 6.67969Z" fill="white"/>
<path d="M16.7734 38H5.64062V24.2695C5.64062 23.6547 6.13908 23.1562 6.75391 23.1562H15.6602C16.275 23.1562 16.7734 23.6547 16.7734 24.2695V38Z" fill="#FFC997"/>
<path d="M7.86719 25.3828H14.5469V38H7.86719V25.3828Z" fill="white"/>
<path d="M31.2461 32.0625H22.3398C21.725 32.0625 21.2266 31.564 21.2266 30.9492V24.2695C21.2266 23.6547 21.725 23.1562 22.3398 23.1562H31.2461C31.8609 23.1562 32.3594 23.6547 32.3594 24.2695V30.9492C32.3594 31.564 31.8609 32.0625 31.2461 32.0625Z" fill="#FFC997"/>
<path d="M23.4531 25.3828H30.1328V29.8359H23.4531V25.3828Z" fill="white"/>
<path d="M11.9492 32.0625C11.3344 32.0625 10.8359 31.564 10.8359 30.9492V29.4648C10.8359 28.85 11.3344 28.3516 11.9492 28.3516C12.564 28.3516 13.0625 28.85 13.0625 29.4648V30.9492C13.0625 31.564 12.564 32.0625 11.9492 32.0625Z" fill="#FF8243"/>
<path d="M2.2793 36.4785H35.7193V37.1985C35.7193 37.6403 35.3611 37.9985 34.9193 37.9985H3.0793C2.63747 37.9985 2.2793 37.6403 2.2793 37.1985V36.4785Z" fill="#FF8243"/>
</g>
<defs>
<clipPath id="clip0_1529_1074">
<rect width="38" height="38" fill="white"/>
</clipPath>
</defs>
</svg>
