<!DOCTYPE svg PUBLIC "-//W3C//DTD SVG 1.1//EN" "http://www.w3.org/Graphics/SVG/1.1/DTD/svg11.dtd">
<!-- Uploaded to: SVG Repo, www.svgrepo.com, Transformed by: SVG Repo Mixer Tools -->
<svg fill="#4187e1" width="800px" height="800px" viewBox="0 0 32 32" version="1.1" xmlns="http://www.w3.org/2000/svg" stroke="#4187e1">
<g id="SVGRepo_bgCarrier" stroke-width="0"/>
<g id="SVGRepo_tracerCarrier" stroke-linecap="round" stroke-linejoin="round"/>
<g id="SVGRepo_iconCarrier"> <title>chart-line-up</title> <path d="M6.693 25.684c0.090 0.042 0.196 0.066 0.308 0.066 0.303 0 0.564-0.18 0.681-0.439l0.002-0.005 4.484-10.012 4.137 1.415c0.072 0.025 0.155 0.040 0.242 0.040 0.216 0 0.41-0.091 0.547-0.236l0-0 7.155-7.619v2.651c0 0.414 0.336 0.75 0.75 0.75s0.75-0.336 0.75-0.75v0-4.546l-0.003-0.016-0.005-0.023c-0.009-0.197-0.093-0.372-0.225-0.5l-0-0-0.004-0.008-0.018-0.007c-0.13-0.12-0.304-0.194-0.495-0.196h-4.545c-0.414 0-0.75 0.336-0.75 0.75s0.336 0.75 0.75 0.75v0h2.811l-6.934 7.384-4.326-1.479c-0.072-0.025-0.154-0.039-0.24-0.039-0.303 0-0.565 0.179-0.685 0.438l-0.002 0.005-4.764 10.636c-0.041 0.090-0.066 0.195-0.066 0.306 0 0.303 0.18 0.564 0.439 0.682l0.005 0.002zM30 29.25h-27.25v-27.25c0-0.414-0.336-0.75-0.75-0.75s-0.75 0.336-0.75 0.75v0 28c0 0.414 0.336 0.75 0.75 0.75h28c0.414 0 0.75-0.336 0.75-0.75s-0.336-0.75-0.75-0.75v0z"/> </g>
</svg>