<svg width="40" height="40" viewBox="0 0 40 40" fill="none" xmlns="http://www.w3.org/2000/svg">
<path d="M20.9767 4.44971C20.9767 3.83291 20.5395 3.33301 20.0001 3.33301C19.4606 3.33301 19.0234 3.83291 19.0234 4.44971V9.23407C19.0234 9.85088 19.4606 10.3508 20.0001 10.3508C20.5395 10.3508 20.9767 9.85088 20.9767 9.23407V4.44971Z" fill="#9E4BAA"/>
<path d="M15.1285 11.2186C15.319 11.4365 15.569 11.5458 15.819 11.5458C16.0688 11.5458 16.3188 11.4367 16.5095 11.2186C16.8908 10.7824 16.8908 10.0755 16.5095 9.63926L14.4172 7.24708C14.0359 6.81087 13.4176 6.81087 13.0361 7.24708C12.6546 7.68329 12.6546 8.39025 13.0361 8.82646L15.1285 11.2186Z" fill="#9E4BAA"/>
<path d="M24.1837 11.5455C24.4337 11.5455 24.6837 11.4365 24.8742 11.2184L26.9666 8.82617C27.3478 8.39025 27.3478 7.683 26.9666 7.24708C26.5851 6.81087 25.9668 6.81087 25.5853 7.24708L23.4932 9.63927C23.1117 10.0755 23.1117 10.7824 23.4932 11.2184C23.6839 11.4365 23.9339 11.5455 24.1837 11.5455Z" fill="#9E4BAA"/>
<path d="M17.1765 13.8654C17.1664 13.8749 17.1567 13.8843 17.1475 13.893L12.9251 18.0318C12.534 18.415 12.0339 18.6265 11.5181 18.6265H8.49388C5.64409 18.6265 3.33398 21.2632 3.33398 24.5264V35.2929C3.33398 35.9094 3.77118 36.4096 4.31062 36.4096H12.6792C13.2189 36.4096 13.6558 35.9091 13.6558 35.2929V25.0414L18.6255 20.1706C18.8793 19.922 19.0253 19.5588 19.0253 19.1767V14.8893C19.0253 13.7988 17.9174 13.1785 17.1765 13.8654Z" fill="#9E4BAA"/>
<path d="M31.508 18.8833H28.4837C27.9679 18.8833 27.4679 18.6719 27.0767 18.2883L22.8543 14.1498C22.8451 14.1411 22.8355 14.1318 22.8253 14.1222C22.0844 13.4353 20.9766 14.0556 20.9766 15.1461V19.4335C20.9766 19.8156 21.1225 20.1788 21.3764 20.4275L26.346 25.2982V35.5495C26.346 36.166 26.783 36.6662 27.3227 36.6662H35.6912C36.2307 36.6662 36.6679 36.1663 36.6679 35.5495V24.7832C36.6679 21.52 34.3578 18.8833 31.508 18.8833Z" fill="#EFC9F9"/>
<path d="M12.6047 13.9208C12.6047 11.3265 10.7587 9.21582 8.48985 9.21582C6.22095 9.21582 4.375 11.3265 4.375 13.9208C4.375 16.5154 6.22095 18.6261 8.48985 18.6261C10.7587 18.6261 12.6047 16.5154 12.6047 13.9208Z" fill="#9E4BAA"/>
<path d="M35.6223 14.1767C35.6223 11.5824 33.7763 9.47168 31.5074 9.47168C29.2385 9.47168 27.3926 11.5824 27.3926 14.1767C27.3926 16.7712 29.2385 18.8819 31.5074 18.8819C33.7763 18.8819 35.6223 16.7712 35.6223 14.1767Z" fill="#EFC9F9"/>
</svg>
