<?xml version="1.0" encoding="iso-8859-1"?>
<!-- Uploaded to: SVG Repo, www.svgrepo.com, Generator: SVG Repo Mixer Tools -->
<svg version="1.1" id="Layer_1" xmlns="http://www.w3.org/2000/svg" xmlns:xlink="http://www.w3.org/1999/xlink" 
	 viewBox="0 0 512 512" xml:space="preserve">
<polyline style="fill:#F2CA7F;" points="69.237,379.739 29.288,379.739 29.288,80.119 300.943,80.119 300.943,108.084 
	300.943,379.739 175.768,379.739 "/>
<rect x="29.289" y="283.974" style="fill:#79B1D6;" width="271.656" height="95.767"/>
<path style="fill:#8CC1EA;" d="M337.23,379.739h-36.287V108.084h94.64c51.228,0,92.749,41.521,92.749,92.736v178.919h-44.57"/>
<g>
	<circle style="fill:#898686;" cx="122.504" cy="379.741" r="53.261"/>
	<circle style="fill:#898686;" cx="390.497" cy="379.741" r="53.261"/>
</g>
<path style="fill:#CEE5F2;" d="M448.383,241.914v-41.095c0-29.107-23.686-52.786-52.801-52.786h-54.691v93.881H448.383z"/>
<g>
	<circle style="fill:#EDEBEB;" cx="122.504" cy="379.741" r="21.269"/>
	<circle style="fill:#EDEBEB;" cx="390.497" cy="379.741" r="21.269"/>
</g>
<path d="M395.583,139.041h-54.69c-4.656,0-8.429,3.774-8.429,8.429v93.881c0,4.655,3.773,8.429,8.429,8.429h107.49
	c4.656,0,8.429-3.774,8.429-8.429v-41.095C456.812,166.503,429.344,139.041,395.583,139.041z M439.954,232.923h-90.632V155.9h46.261
	c24.467,0,44.37,19.899,44.37,44.357v32.666H439.954z"/>
<path d="M122.503,349.479c-16.375,0-29.698,13.323-29.698,29.698c0,16.375,13.323,29.698,29.698,29.698s29.698-13.323,29.698-29.698
	C152.201,362.802,138.878,349.479,122.503,349.479z M122.503,392.016c-7.079,0-12.839-5.76-12.839-12.839
	c0-7.079,5.76-12.839,12.839-12.839s12.839,5.76,12.839,12.839C135.343,386.257,129.583,392.016,122.503,392.016z"/>
<path d="M390.496,349.479c-16.375,0-29.699,13.323-29.699,29.698c0,16.375,13.323,29.698,29.699,29.698
	c16.376,0,29.698-13.323,29.698-29.698C420.194,362.802,406.871,349.479,390.496,349.479z M390.496,392.016
	c-7.081,0-12.84-5.76-12.84-12.839c0-7.079,5.76-12.839,12.84-12.839c7.079,0,12.839,5.76,12.839,12.839
	C403.335,386.257,397.575,392.016,390.496,392.016z"/>
<path d="M448.383,280.196c-4.656,0-8.429,3.774-8.429,8.429v25.301c0,4.655,3.773,8.429,8.429,8.429
	c4.656,0,8.429-3.774,8.429-8.429v-25.301C456.812,283.97,453.038,280.196,448.383,280.196z"/>
<path d="M503.571,346.908h-6.81v-146.65c0-55.782-45.388-101.165-101.179-101.165h-86.211V79.557c0-4.655-3.773-8.429-8.429-8.429
	H29.288c-4.655,0-8.429,3.774-8.429,8.429v34.011c0,4.655,3.774,8.429,8.429,8.429s8.429-3.774,8.429-8.429V87.986h254.797v186.992
	h-18.527c-4.656,0-8.429,3.774-8.429,8.429c0,4.655,3.773,8.429,8.429,8.429h18.527v78.911H183.607
	c-4.125-30.043-29.946-53.266-61.105-53.266s-56.979,23.223-61.104,53.266H37.717v-6.982h8.429c4.655,0,8.429-3.774,8.429-8.429
	c0-4.655-3.774-8.429-8.429-8.429h-8.429v-55.071h208.172c4.655,0,8.429-3.774,8.429-8.429c0-4.655-3.774-8.429-8.429-8.429H37.717
	V141.666c0-4.655-3.774-8.429-8.429-8.429s-8.429,3.774-8.429,8.429v205.242H8.429c-4.655,0-8.429,3.774-8.429,8.429
	c0,4.655,3.774,8.429,8.429,8.429h12.429v15.411c0,4.655,3.774,8.429,8.429,8.429h32.111c4.125,30.043,29.946,53.266,61.105,53.266
	s56.979-23.223,61.105-53.266h145.783c4.125,30.043,29.947,53.266,61.105,53.266s56.979-23.223,61.104-53.266h36.732
	c4.656,0,8.429-3.774,8.429-8.429v-15.411h6.81c4.656,0,8.429-3.774,8.429-8.429C512,350.682,508.227,346.908,503.571,346.908z
	 M122.503,424.014c-24.723,0-44.837-20.113-44.837-44.837s20.113-44.837,44.837-44.837s44.837,20.113,44.837,44.837
	S147.226,424.014,122.503,424.014z M390.496,424.014c-24.719,0-44.829-20.106-44.837-44.822c0-0.004,0.001-0.01,0.001-0.015
	s-0.001-0.01-0.001-0.015c0.008-24.717,20.119-44.822,44.837-44.822c24.722,0,44.837,20.113,44.837,44.837
	S415.218,424.014,390.496,424.014z M479.903,370.748h-28.304c-4.125-30.043-29.946-53.266-61.104-53.266
	s-56.98,23.223-61.105,53.266h-20.019V115.951h86.211c46.494,0,84.32,37.82,84.32,84.307v146.65h-14.049
	c-4.656,0-8.429,3.774-8.429,8.429c0,4.655,3.773,8.429,8.429,8.429h14.05V370.748z"/>
</svg>