<!DOCTYPE svg PUBLIC "-//W3C//DTD SVG 1.1//EN" "http://www.w3.org/Graphics/SVG/1.1/DTD/svg11.dtd">
<!-- Uploaded to: SVG Repo, www.svgrepo.com, Transformed by: SVG Repo Mixer Tools -->
<svg height="800px" width="800px" version="1.1" id="Layer_1" xmlns="http://www.w3.org/2000/svg" xmlns:xlink="http://www.w3.org/1999/xlink" viewBox="0 0 512 512" xml:space="preserve" fill="#000000">
<g id="SVGRepo_bgCarrier" stroke-width="0"/>
<g id="SVGRepo_tracerCarrier" stroke-linecap="round" stroke-linejoin="round"/>
<g id="SVGRepo_iconCarrier"> <g transform="translate(1 1)"> <path style="fill:#4ac507;" d="M395.8,201.24c-16.213,0-31.573-3.413-45.227-9.387c-24.747,15.36-61.44,20.48-61.44,20.48 c11.947-11.947,16.213-36.693,17.92-54.613c-11.093-15.36-17.92-33.28-17.92-52.907c0-30.72,16.213-58.027,40.96-75.947 c-23.893-8.533-48.64-12.8-75.093-12.8C122.733,16.067,16.067,122.733,16.067,255c0,28.16,5.12,55.467,13.653,80.213 c19.627-23.04,50.347-37.547,84.48-37.547c58.88,0,106.667,43.52,106.667,96.427c0,19.627-6.827,38.4-17.92,52.907 c0.853,12.8,3.413,29.867,9.387,42.667c13.653,2.56,28.16,3.413,41.813,3.413c132.267,0,238.933-106.667,238.933-238.933 c0-30.72-5.973-60.587-17.067-87.893C457.24,187.587,428.227,201.24,395.8,201.24"/> <path style="fill:#207109;" d="M41.667,251.587c0-127.147,98.987-231.253,224.427-238.933c-3.413,0-7.68-0.853-11.093-0.853 c-132.267,0-238.933,106.667-238.933,238.933c0,28.16,5.12,55.467,13.653,80.213c5.973-6.827,12.8-12.8,20.48-17.92 C44.227,294.253,41.667,272.92,41.667,251.587"/> <path style="fill:#9ce283;" d="M476.867,169.667c-5.973,5.973-12.8,11.947-19.627,16.213c6.827,23.04,11.093,46.933,11.093,71.68 c0,128-99.84,232.107-226.133,238.933c4.267,0,8.533,0,12.8,0c132.267,0,238.933-106.667,238.933-238.933 C493.933,226.84,487.96,196.973,476.867,169.667"/> <g> <path style="fill:#dbd400;" d="M395.8,7.533c-58.88,0-106.667,43.52-106.667,96.427c0,19.627,6.827,38.4,17.92,52.907 c-1.707,17.92-5.973,42.667-17.92,54.613c0,0,36.693-5.12,61.44-20.48c13.653,5.973,29.013,9.387,45.227,9.387 c58.88,0,106.667-43.52,106.667-96.427S454.68,7.533,395.8,7.533"/> <path style="fill:#dbd400;" d="M114.2,297.667c58.88,0,106.667,43.52,106.667,96.427c0,19.627-6.827,38.4-17.92,52.907 c1.707,17.92,5.973,42.667,17.92,54.613c0,0-36.693-5.12-61.44-20.48c-13.653,5.973-29.013,9.387-45.227,9.387 C55.32,491.373,7.533,447.853,7.533,394.093C7.533,341.187,55.32,297.667,114.2,297.667"/> </g> <polygon style="fill:#63D3FD;" points="348.867,152.6 434.2,152.6 434.2,84.333 348.867,84.333 "/> <path style="fill:#E4667F;" d="M109.933,365.933c5.12-10.24,15.36-17.067,28.16-17.067c17.067,0,29.867,13.653,31.573,29.867 c0,0,0.853,4.267-0.853,11.093c-2.56,10.24-8.533,18.773-16.213,25.6l-42.667,35.84L68.12,416.28 c-7.68-6.827-13.653-15.36-16.213-25.6c-2.56-7.68-1.707-11.947-1.707-11.947c1.707-16.213,14.507-29.867,31.573-29.867 C94.573,348.867,104.813,355.693,109.933,365.933"/> <path d="M255,502.467c-5.12,0-8.533-3.413-8.533-8.533V16.067c0-5.12,3.413-8.533,8.533-8.533s8.533,3.413,8.533,8.533v477.867 C263.533,499.053,260.12,502.467,255,502.467z"/> <path d="M255,152.6c-64,0-125.44-18.773-178.347-54.613c-4.267-2.56-5.12-7.68-2.56-11.947c2.56-4.267,7.68-5.12,11.947-2.56 c49.493,34.133,108.373,52.053,168.107,52.053c5.12,0,8.533,3.413,8.533,8.533C262.68,149.187,260.12,152.6,255,152.6z"/> <path d="M493.933,263.533H16.067c-5.12,0-8.533-3.413-8.533-8.533s3.413-8.533,8.533-8.533h477.867c5.12,0,8.533,3.413,8.533,8.533 S499.053,263.533,493.933,263.533z"/> <path d="M433.347,423.107c-1.707,0-3.413-0.853-5.12-1.707c-51.2-35.84-110.933-55.467-173.227-55.467 c-5.12,0-8.533-3.413-8.533-8.533s3.413-8.533,8.533-8.533c65.707,0,128.853,20.48,182.613,58.88 c4.267,2.56,5.12,7.68,1.707,11.947C438.467,421.4,435.907,423.107,433.347,423.107z"/> <path d="M260.12,502.467c-2.56,0-5.12-0.853-6.827-3.413c-2.56-3.413-2.56-9.387,0.853-11.947 C324.973,429.933,365.08,345.453,365.08,255c0-5.12,3.413-8.533,8.533-8.533s8.533,3.413,8.533,8.533 c0,95.573-42.667,185.173-116.907,245.76C264.387,501.613,262.68,502.467,260.12,502.467z"/> <path d="M135.533,263.533c-5.12,0-8.533-3.413-8.533-8.533c0-95.573,42.667-185.173,116.907-245.76 c3.413-2.56,9.387-2.56,11.947,0.853c2.56,3.413,2.56,9.387-0.853,11.947C184.173,80.067,144.067,164.547,144.067,255 C144.067,260.12,140.653,263.533,135.533,263.533z"/> <path d="M289.133,220.867c-3.413,0-5.973-1.707-7.68-5.12s-0.853-6.827,1.707-10.24c7.68-7.68,12.8-23.893,15.36-46.08 c-11.093-17.067-17.067-35.84-17.067-55.467C280.6,45.933,332.653-1,395.8-1S511,45.933,511,103.96s-52.053,104.96-115.2,104.96 c-15.36,0-30.72-2.56-44.373-8.533c-25.6,14.507-59.733,18.773-60.587,19.627C289.987,220.867,289.133,220.867,289.133,220.867z M395.8,16.067c-53.76,0-98.133,39.253-98.133,87.893c0,17.067,5.12,34.133,16.213,48.64c0.853,1.707,1.707,3.413,1.707,5.973 c-0.853,12.8-3.413,28.16-8.533,41.813c11.947-3.413,27.307-7.68,39.253-15.36c2.56-1.707,5.12-1.707,7.68-0.853 c12.8,5.973,27.307,8.533,41.813,8.533c53.76,0,98.133-40.107,98.133-88.747S449.56,16.067,395.8,16.067z"/> <path d="M220.867,511h-0.853c-1.707,0-34.987-5.12-60.587-19.627c-14.507,5.12-29.013,8.533-44.373,8.533 C51.053,499.907-1,452.973-1,394.093c0-58.027,52.053-104.96,115.2-104.96s115.2,46.933,115.2,104.96 c0,19.627-5.973,39.253-17.067,55.467c2.56,22.187,7.68,38.4,14.507,46.08c2.56,2.56,3.413,6.827,1.707,10.24 C226.84,509.293,224.28,511,220.867,511z M159.427,473.453c1.707,0,3.413,0,4.267,0.853c11.947,7.68,27.307,11.947,39.253,15.36 c-5.12-12.8-7.68-29.013-8.533-41.813c0-1.707,0-4.267,1.707-5.973c10.24-14.507,16.213-30.72,16.213-48.64 c0-47.787-44.373-87.04-98.133-87.04s-98.133,39.253-98.133,87.893S60.44,482.84,114.2,482.84c14.507,0,29.013-2.56,41.813-8.533 C156.867,473.453,158.573,473.453,159.427,473.453z"/> <path d="M255,502.467c-14.507,0-29.013-1.707-43.52-4.267c-2.56-0.853-5.12-2.56-5.973-5.12 c-6.827-14.507-9.387-32.427-10.24-45.227c0-1.707,0-4.267,1.707-5.973c10.24-14.507,16.213-30.72,16.213-48.64 c-0.853-47.787-45.227-87.04-98.987-87.04c-30.72,0-58.88,12.8-77.653,34.987c-1.707,2.56-5.12,3.413-7.68,2.56 c-3.413-0.853-5.12-2.56-6.827-5.12C12.653,311.32,7.533,283.16,7.533,255C7.533,118.467,118.467,7.533,255,7.533 c26.453,0,52.907,4.267,77.653,12.8c3.413,0.853,5.12,3.413,5.973,6.827c0.853,3.413-0.853,5.973-3.413,8.533 c-23.893,17.067-37.547,41.813-37.547,69.12c0,17.067,5.12,34.133,16.213,48.64c0.853,1.707,1.707,3.413,1.707,5.973 c-0.853,12.8-3.413,28.16-8.533,41.813c11.947-3.413,27.307-7.68,39.253-15.36c2.56-1.707,5.12-1.707,7.68-0.853 c12.8,5.973,27.307,8.533,41.813,8.533c29.013,0,56.32-11.093,75.093-31.573c1.707-2.56,5.12-3.413,7.68-2.56 c2.56,0.853,5.12,2.56,5.973,5.12c11.947,29.013,17.067,59.733,17.067,91.307C502.467,391.533,391.533,502.467,255,502.467z M219.16,482.84c11.947,1.707,23.893,2.56,35.84,2.56c127.147,0,230.4-103.253,230.4-230.4c0-24.747-4.267-49.493-11.947-73.387 c-21.333,17.92-48.64,27.307-77.653,27.307c-15.36,0-30.72-2.56-44.373-8.533c-25.6,14.507-59.733,18.773-60.587,19.627 c-3.413,0.853-6.827-1.707-8.533-4.267c-1.707-3.413-0.853-6.827,1.707-10.24c7.68-7.68,12.8-23.893,15.36-46.08 c-11.093-17.067-17.067-35.84-17.067-55.467c0-27.307,11.093-52.907,31.573-72.533C293.4,27.16,274.627,24.6,255,24.6 C127.853,24.6,24.6,127.853,24.6,255c0,22.187,3.413,43.52,9.387,64c21.333-19.627,50.347-29.867,80.213-29.867 c63.147,0,115.2,46.933,115.2,104.96c0,19.627-5.973,39.253-17.067,55.467C213.187,459.8,214.893,472.6,219.16,482.84z"/> <path d="M109.933,459.8c-1.707,0-4.267-0.853-5.12-1.707L63,423.107c-9.387-8.533-16.213-18.773-19.627-29.867 c-2.56-8.533-1.707-13.653-1.707-15.36c2.56-21.333,19.627-37.547,40.107-37.547c11.093,0,21.333,4.267,28.16,11.093 c6.827-6.827,17.067-11.093,28.16-11.093c20.48,0,37.547,16.213,40.107,37.547c0,1.707,0.853,6.827-0.853,14.507 c-2.56,11.093-9.387,22.187-19.627,29.867l-41.813,34.987C114.2,458.947,111.64,459.8,109.933,459.8z M58.733,380.44 c0,0,0,2.56,0.853,7.68c1.707,7.68,6.827,15.36,13.653,21.333l36.693,30.72l36.693-30.72c6.827-5.973,11.947-12.8,13.653-21.333 c0.853-5.12,0.853-7.68,0.853-7.68c-0.853-11.947-9.387-23.04-23.04-23.04c-9.387,0-17.067,4.267-20.48,11.947 c-1.707,3.413-4.267,5.12-7.68,5.12s-5.973-1.707-7.68-5.12c-3.413-7.68-11.093-11.947-20.48-11.947 c-13.653,0-21.333,11.093-23.04,22.187C58.733,380.44,58.733,380.44,58.733,380.44L58.733,380.44z"/> <path d="M434.2,161.133h-85.333c-5.12,0-8.533-3.413-8.533-8.533V84.333c0-5.12,3.413-8.533,8.533-8.533H434.2 c5.12,0,8.533,3.413,8.533,8.533V152.6C442.733,157.72,439.32,161.133,434.2,161.133z M357.4,144.067h68.267v-51.2H357.4V144.067z"/> <path d="M391.533,92.867c-2.56,0-5.12-0.853-6.827-3.413l-25.6-34.133c-2.56-3.413-1.707-9.387,1.707-11.947 c3.413-2.56,9.387-1.707,11.947,1.707l25.6,34.133c2.56,3.413,1.707,9.387-1.707,11.947 C394.947,92.013,393.24,92.867,391.533,92.867z"/> <path d="M391.533,92.867c-1.707,0-3.413-0.853-5.12-1.707c-3.413-2.56-4.267-8.533-1.707-11.947l25.6-34.133 c2.56-3.413,8.533-4.267,11.947-1.707c3.413,2.56,4.267,8.533,1.707,11.947l-25.6,34.133 C396.653,92.013,394.093,92.867,391.533,92.867z"/> <path d="M391.533,161.133c-5.12,0-8.533-3.413-8.533-8.533V84.333c0-5.12,3.413-8.533,8.533-8.533s8.533,3.413,8.533,8.533V152.6 C400.067,157.72,396.653,161.133,391.533,161.133z"/> </g> </g>
</svg>