<svg width="38" height="38" viewBox="0 0 38 38" fill="none" xmlns="http://www.w3.org/2000/svg">
<path d="M36.3821 8.03371C36.825 8.03371 37.1841 7.67463 37.1841 7.2317C37.1841 6.78876 36.825 6.42969 36.3821 6.42969C35.9391 6.42969 35.5801 6.78876 35.5801 7.2317C35.5801 7.67463 35.9391 8.03371 36.3821 8.03371Z" fill="#A3EEF8"/>
<path d="M9.9871 13.2613L8.01562 14.5147L10.423 18.3009L14.4872 15.7169L12.0798 11.9307L10.019 13.2411C10.0086 13.2485 9.99793 13.2549 9.9871 13.2613Z" fill="#4FBCD1"/>
<path d="M3.11965 13.4853C3.02422 13.914 3.10299 14.3631 3.33865 14.7337C3.5743 15.1044 3.94753 15.3662 4.37625 15.4617L4.70007 15.5339L7.16175 13.9907C7.18913 13.9736 7.21827 13.9596 7.24866 13.9488L8.69459 13.0295L5.09617 12.2287C4.66747 12.1337 4.21862 12.2127 3.84808 12.4483C3.47754 12.6839 3.21558 13.0568 3.11965 13.4853Z" fill="#A3EEF8"/>
<path d="M13.5249 5.64896C13.0962 5.55351 12.6471 5.63227 12.2765 5.86793C11.9058 6.10359 11.6439 6.47683 11.5485 6.90556L10.4316 11.9219L11.8968 10.9903C11.9196 10.9672 11.9449 10.9467 11.9721 10.9291L14.4147 9.37994L14.7803 7.63112C14.8767 7.2018 14.7985 6.7518 14.5631 6.38009C14.3276 6.00838 13.9542 5.74539 13.5249 5.64896Z" fill="#A3EEF8"/>
<path d="M19.684 7.7204C19.5545 7.69148 19.4221 7.67685 19.2894 7.67676C18.9485 7.67697 18.6147 7.77467 18.3275 7.95834L13.6759 10.9159C13.2099 11.2123 13.0723 11.8303 13.3686 12.2964L14.7029 14.3948C14.9992 14.8609 15.6173 14.9985 16.0833 14.7021L21.4093 11.3157C21.8753 11.0194 22.0129 10.4014 21.7166 9.93531L20.8111 8.51135C20.6849 8.31155 20.5202 8.13876 20.3268 8.003C20.1333 7.86724 19.9148 7.77118 19.684 7.7204Z" fill="#4FBCD1"/>
<path d="M7.80182 15.836C7.50549 15.37 6.88746 15.2324 6.42141 15.5287L1.64951 18.5628C1.24724 18.8192 0.963112 19.2247 0.859454 19.6904C0.755796 20.156 0.841073 20.6438 1.09658 21.0467L2.00189 22.4706C2.29821 22.9367 2.91625 23.0743 3.38232 22.7779L8.82881 19.3149C9.29488 19.0186 9.43247 18.4006 9.13613 17.9345L7.80182 15.836Z" fill="#4FBCD1"/>
<path d="M17.7246 35.3827C17.7246 35.935 18.1723 36.3827 18.7246 36.3827H23.4888C23.9659 36.3821 24.4232 36.1924 24.7605 35.855C25.0979 35.5177 25.2876 35.0604 25.2882 34.5833V23.9687C25.2882 23.4165 24.8405 22.9688 24.2882 22.9688H18.7246C18.1723 22.9688 17.7246 23.4165 17.7246 23.9687V35.3827Z" fill="#4FBCD1"/>
<path d="M5.09593 34.5833C5.09648 35.0604 5.28623 35.5177 5.62355 35.855C5.96088 36.1924 6.41823 36.3821 6.89529 36.3827H10.1742C10.7265 36.3827 11.1742 35.935 11.1742 35.3827V23.9688C11.1742 23.4165 10.7265 22.9688 10.1742 22.9688H6.09572C5.54343 22.9688 5.09571 23.4165 5.09572 23.9688L5.09593 34.5833Z" fill="#4FBCD1"/>
<path d="M12.0645 23.9687C12.0645 23.4165 12.5122 22.9688 13.0645 22.9688H15.834C16.3863 22.9688 16.834 23.4165 16.834 23.9687V35.3826C16.834 35.9349 16.3863 36.3826 15.834 36.3826H13.0645C12.5122 36.3826 12.0645 35.9349 12.0645 35.3826V23.9687Z" fill="#4FBCD1"/>
<path d="M30.712 18.0331L30.925 16.7911C30.9391 16.7093 30.9299 16.6251 30.8986 16.5481C30.8673 16.4711 30.8151 16.4044 30.7479 16.3556C30.6806 16.3068 30.6011 16.2777 30.5182 16.2717C30.4353 16.2657 30.3524 16.283 30.2789 16.3217L29.1635 16.908L28.0482 16.3217C27.9746 16.283 27.8917 16.2657 27.8088 16.2717C27.7259 16.2776 27.6463 16.3067 27.5791 16.3555C27.5119 16.4044 27.4596 16.4711 27.4283 16.548C27.397 16.625 27.3879 16.7092 27.4019 16.7911L27.615 18.0331L26.7126 18.9127C26.6531 18.9707 26.611 19.0442 26.5911 19.1249C26.5712 19.2055 26.5742 19.2902 26.5999 19.3692C26.6256 19.4482 26.6729 19.5185 26.7364 19.572C26.8 19.6256 26.8772 19.6603 26.9594 19.6722L28.2063 19.8536L28.764 20.9835C28.8008 21.058 28.8576 21.1208 28.9282 21.1647C28.9988 21.2085 29.0803 21.2318 29.1634 21.2318C29.2465 21.2318 29.3279 21.2085 29.3985 21.1647C29.4691 21.1208 29.526 21.058 29.5627 20.9835L30.1203 19.8536L31.3672 19.6722C31.4494 19.6603 31.5267 19.6256 31.5902 19.572C31.6537 19.5185 31.701 19.4482 31.7267 19.3692C31.7524 19.2901 31.7554 19.2055 31.7355 19.1248C31.7156 19.0442 31.6735 18.9707 31.614 18.9127L30.712 18.0331Z" fill="#A3EEF8"/>
<path d="M35.8352 11.8974L34.6105 11.5998L34.1614 10.4225C34.1318 10.3448 34.0811 10.277 34.015 10.2267C33.9488 10.1763 33.8699 10.1455 33.7872 10.1377C33.7045 10.1299 33.6212 10.1454 33.5468 10.1824C33.4724 10.2195 33.4099 10.2766 33.3663 10.3474L32.7049 11.42L31.4464 11.4833C31.3634 11.4875 31.2832 11.5148 31.215 11.5621C31.1467 11.6095 31.093 11.675 31.06 11.7512C31.0271 11.8275 31.0161 11.9115 31.0283 11.9936C31.0405 12.0758 31.0755 12.1529 31.1293 12.2163L31.945 13.1768L31.6168 14.3932C31.5952 14.4734 31.5963 14.5581 31.6203 14.6377C31.6442 14.7172 31.6899 14.7885 31.7523 14.8435C31.8146 14.8984 31.8911 14.9349 31.973 14.9486C32.055 14.9624 32.1392 14.9529 32.216 14.9213L33.3813 14.4423L34.4367 15.1308C34.5063 15.1762 34.5872 15.2013 34.6703 15.2031C34.7534 15.2049 34.8353 15.1834 34.9068 15.1411C34.9783 15.0988 35.0366 15.0373 35.075 14.9636C35.1134 14.8899 35.1304 14.807 35.1241 14.7241L35.0287 13.4677L36.0095 12.6767C36.0742 12.6246 36.1229 12.5553 36.1503 12.4769C36.1777 12.3985 36.1826 12.314 36.1645 12.2329C36.1463 12.1518 36.1059 12.0774 36.0477 12.0182C35.9895 11.9589 35.9159 11.9171 35.8352 11.8974Z" fill="#A3EEF8"/>
<path d="M33.5063 3.71436C33.4882 3.63327 33.4477 3.55887 33.3895 3.49957C33.3313 3.44027 33.2577 3.39845 33.1769 3.37882L31.9523 3.0812L31.5033 1.90387C31.4737 1.82621 31.423 1.7584 31.3568 1.70808C31.2907 1.65777 31.2118 1.62696 31.129 1.61916C31.0463 1.61135 30.963 1.62685 30.8887 1.6639C30.8143 1.70096 30.7517 1.75809 30.7081 1.82883L30.0468 2.90152L28.7882 2.96475C28.7052 2.96891 28.6251 2.99621 28.5568 3.04356C28.4885 3.09091 28.4348 3.15641 28.4018 3.23267C28.3689 3.30893 28.3579 3.3929 28.3701 3.47509C28.3823 3.55727 28.4173 3.6344 28.4711 3.69773L29.2873 4.6582L28.9586 5.87472C28.9369 5.95493 28.9381 6.03962 28.962 6.11919C28.986 6.19876 29.0317 6.27004 29.094 6.32498C29.1564 6.37992 29.2328 6.41633 29.3148 6.43008C29.3967 6.44383 29.4809 6.43437 29.5577 6.40279L30.723 5.92378L31.7784 6.61245C31.848 6.65785 31.9289 6.68288 32.012 6.68469C32.0951 6.68651 32.177 6.66505 32.2485 6.62273C32.32 6.58042 32.3783 6.51894 32.4167 6.44524C32.4551 6.37155 32.4721 6.28859 32.4658 6.20573L32.3703 4.94914L33.3512 4.15819C33.4159 4.10604 33.4647 4.03684 33.4921 3.95841C33.5195 3.87998 33.5245 3.79544 33.5063 3.71436Z" fill="#A3EEF8"/>
<path d="M25.8435 17.4696C23.6858 16.9357 22.1325 17.5162 21.2094 18.0973C20.2044 18.73 19.7128 19.4967 19.6923 19.529C19.629 19.6288 19.608 19.7496 19.6338 19.8648C19.6596 19.9801 19.7302 20.0804 19.8299 20.1436C19.9297 20.2069 20.0505 20.2279 20.1657 20.2021C20.281 20.1763 20.3812 20.1057 20.4445 20.006C20.5113 19.9021 22.1224 17.4667 25.6293 18.3341C25.6863 18.3488 25.7456 18.352 25.8038 18.3436C25.8621 18.3352 25.918 18.3154 25.9686 18.2852C26.0191 18.2551 26.0631 18.2152 26.0981 18.168C26.1332 18.1207 26.1585 18.067 26.1726 18.0099C26.1867 17.9528 26.1894 17.8934 26.1805 17.8353C26.1716 17.7771 26.1512 17.7213 26.1206 17.6711C26.09 17.6209 26.0497 17.5772 26.0021 17.5426C25.9545 17.508 25.9005 17.4832 25.8433 17.4696H25.8435Z" fill="#A3EEF8"/>
<path d="M20.9327 15.9022C20.9062 15.9546 20.8903 16.0118 20.886 16.0703C20.8817 16.1289 20.889 16.1878 20.9075 16.2436C20.926 16.2993 20.9554 16.3508 20.994 16.3952C21.0325 16.4395 21.0794 16.4758 21.1321 16.5019C21.1847 16.5281 21.242 16.5435 21.3006 16.5474C21.3592 16.5513 21.418 16.5436 21.4736 16.5246C21.5292 16.5057 21.5806 16.4759 21.6246 16.4371C21.6687 16.3982 21.7046 16.351 21.7304 16.2982C22.2211 15.4042 22.8888 14.6195 23.6927 13.9919C25.4212 12.6614 27.4279 12.4556 29.657 13.381C29.711 13.4034 29.7689 13.415 29.8274 13.415C29.8859 13.4151 29.9438 13.4036 29.9979 13.3813C30.0519 13.3589 30.101 13.3261 30.1424 13.2848C30.1838 13.2435 30.2166 13.1944 30.239 13.1404C30.2614 13.0864 30.273 13.0285 30.273 12.97C30.2731 12.9115 30.2616 12.8536 30.2393 12.7996C30.2169 12.7455 30.1841 12.6964 30.1428 12.655C30.1015 12.6136 30.0524 12.5808 29.9984 12.5584C26.8282 11.2427 24.5242 12.228 23.1495 13.2863C22.2376 13.9955 21.4827 14.8862 20.9327 15.9022Z" fill="#A3EEF8"/>
<path d="M25.215 9.79537C25.1026 9.75908 24.9804 9.76892 24.8753 9.82273C24.7701 9.87653 24.6907 9.96991 24.6544 10.0823C24.6181 10.1947 24.6279 10.3169 24.6817 10.4221C24.7355 10.5272 24.8289 10.6067 24.9413 10.643C25.5544 10.8236 26.1901 10.9155 26.8293 10.9158C27.574 10.9158 28.4341 10.7813 29.2054 10.3242C30.2148 9.72613 30.862 8.70718 31.1302 7.29606C31.1411 7.23861 31.1406 7.17957 31.1287 7.12231C31.1168 7.06505 31.0937 7.0107 31.0608 6.96235C31.0279 6.91401 30.9858 6.87261 30.9369 6.84054C30.888 6.80846 30.8333 6.78633 30.7758 6.77541C30.7184 6.76449 30.6594 6.76499 30.6021 6.77689C30.5448 6.78878 30.4905 6.81184 30.4421 6.84474C30.3938 6.87764 30.3524 6.91975 30.3203 6.96865C30.2883 7.01754 30.2661 7.07228 30.2552 7.12973C30.0371 8.27723 29.5325 9.09356 28.7552 9.55602C27.2766 10.4352 25.2471 9.80562 25.215 9.79537Z" fill="#A3EEF8"/>
<path d="M18.7669 21.5884C19.2098 21.5884 19.5689 21.2293 19.5689 20.7864C19.5689 20.3434 19.2098 19.9844 18.7669 19.9844C18.3239 19.9844 17.9648 20.3434 17.9648 20.7864C17.9648 21.2293 18.3239 21.5884 18.7669 21.5884Z" fill="#A3EEF8"/>
<path d="M25.0754 7.04152C25.5184 7.04152 25.8775 6.68244 25.8775 6.23951C25.8775 5.79657 25.5184 5.4375 25.0754 5.4375C24.6325 5.4375 24.2734 5.79657 24.2734 6.23951C24.2734 6.68244 24.6325 7.04152 25.0754 7.04152Z" fill="#A3EEF8"/>
<path d="M17.636 17.8745C18.0789 17.8745 18.438 17.5154 18.438 17.0725C18.438 16.6296 18.0789 16.2705 17.636 16.2705C17.1931 16.2705 16.834 16.6296 16.834 17.0725C16.834 17.5154 17.1931 17.8745 17.636 17.8745Z" fill="#A3EEF8"/>
<path d="M35.0618 19.1802C35.5047 19.1802 35.8638 18.8211 35.8638 18.3782C35.8638 17.9352 35.5047 17.5762 35.0618 17.5762C34.6188 17.5762 34.2598 17.9352 34.2598 18.3782C34.2598 18.8211 34.6188 19.1802 35.0618 19.1802Z" fill="#A3EEF8"/>
</svg>
