<?xml version="1.0" standalone="no"?>
<!DOCTYPE svg PUBLIC "-//W3C//DTD SVG 20010904//EN"
 "http://www.w3.org/TR/2001/REC-SVG-20010904/DTD/svg10.dtd">
<svg version="1.0" xmlns="http://www.w3.org/2000/svg"
 width="512.000000pt" height="512.000000pt" viewBox="0 0 512.000000 512.000000"
 preserveAspectRatio="xMidYMid meet">

<g transform="translate(0.000000,512.000000) scale(0.100000,-0.100000)"
fill="#000000" stroke="none">
<path d="M2675 5106 c-28 -12 -45 -34 -59 -80 -4 -13 8 -49 34 -102 55 -110
70 -194 47 -266 -9 -29 -34 -76 -56 -104 -88 -117 -121 -203 -121 -320 0 -99
17 -163 70 -269 33 -66 54 -94 78 -108 41 -24 95 -16 127 19 39 42 38 71 -6
160 -54 110 -69 195 -46 266 9 29 34 76 56 104 89 118 121 202 121 324 0 97
-20 173 -72 273 -56 108 -101 135 -173 103z"/>
<path d="M1801 4664 c-46 -38 -49 -78 -12 -152 42 -83 41 -117 -8 -178 -68
-87 -76 -109 -76 -214 0 -87 3 -101 32 -161 44 -89 73 -114 130 -114 38 0 49
5 74 33 38 42 37 80 -1 156 -41 80 -39 102 15 174 52 69 70 109 80 173 13 86
-46 247 -106 290 -39 27 -91 25 -128 -7z"/>
<path d="M3501 4659 c-40 -40 -40 -80 -1 -157 36 -72 37 -99 5 -143 -95 -130
-114 -188 -97 -289 21 -118 98 -230 158 -230 57 0 114 55 114 110 0 11 -13 46
-30 77 -42 78 -40 119 7 175 20 23 47 67 61 96 20 45 23 65 20 130 -10 195
-143 325 -237 231z"/>
<path d="M774 3623 c-12 -2 -34 -17 -49 -33 -39 -41 -39 -100 1 -141 15 -16
35 -29 43 -29 33 0 43 -20 60 -119 l17 -101 -194 0 c-207 0 -237 -6 -259 -52
-21 -44 -23 -59 -9 -92 27 -64 35 -66 292 -66 l231 0 28 -67 c172 -417 465
-754 835 -962 41 -24 79 -46 83 -50 5 -5 -105 -390 -244 -857 -309 -1043 -283
-945 -265 -988 15 -37 59 -66 98 -66 13 0 37 9 55 20 34 20 38 31 126 325 l24
80 909 0 909 0 6 -50 c31 -236 254 -405 485 -367 187 31 325 170 356 358 19
113 -16 240 -92 332 -67 81 -202 152 -291 152 -21 0 -40 4 -43 8 -4 8 -306
1035 -306 1044 0 2 52 35 115 73 274 163 519 406 676 673 109 185 198 420 234
622 9 52 19 105 21 118 3 15 14 24 33 28 47 10 84 56 84 104 0 34 -7 48 -32
73 l-31 32 -1943 1 c-1068 1 -1952 -1 -1963 -3z m1306 -2085 c0 -167 4 -299
11 -321 13 -49 63 -105 114 -128 37 -17 77 -19 515 -19 438 0 478 2 515 19 51
23 101 79 114 128 7 22 11 154 11 321 0 176 4 282 10 282 11 0 9 7 180 -580
115 -397 127 -446 113 -454 -30 -16 -103 -88 -121 -118 l-16 -28 -909 0 c-723
0 -908 3 -904 13 2 6 79 266 171 577 195 661 173 590 186 590 7 0 10 -95 10
-282z m355 186 c182 -31 556 -19 688 22 16 5 17 -10 17 -230 l0 -236 -50 0
c-43 0 -50 3 -50 19 0 32 -48 80 -87 87 -60 11 -105 -20 -127 -88 -5 -16 -19
-18 -106 -18 -87 0 -101 2 -106 18 -22 68 -67 99 -127 88 -39 -7 -87 -55 -87
-87 0 -16 -7 -19 -50 -19 l-50 0 0 236 c0 220 1 235 18 230 9 -3 62 -13 117
-22z"/>
</g>
</svg>
