<svg xmlns="http://www.w3.org/2000/svg"  viewBox="0 0 100 100" width="100px" height="100px"><path fill="#f9b621" d="M74.007,18.001c0.204,0,0.403,0.056,0.576,0.163l16.427,10.109c0.61,0.375,0.989,1.054,0.989,1.77	v29.085c0,0.724-0.367,1.384-0.982,1.766L51.055,85.699C50.738,85.896,50.373,86,50,86s-0.738-0.104-1.055-0.301L8.982,60.895	C8.367,60.513,8,59.853,8,59.129V30.044c0-0.716,0.379-1.395,0.989-1.77l16.427-10.109c0.173-0.107,0.373-0.163,0.576-0.163	c0.205,0,0.406,0.057,0.58,0.165l15.354,9.53c2.426,1.506,5.218,2.302,8.073,2.302s5.647-0.796,8.073-2.302l15.354-9.53	C73.602,18.058,73.802,18.001,74.007,18.001"/><path fill="#f5905f" d="M50,52L8.228,29.125C8.087,29.408,8,29.72,8,30.044v29.085c0,0.724,0.367,1.384,0.982,1.766	l39.963,24.805C49.262,85.896,49.627,86,50,86V52z"/><path fill="#ee4267" d="M50,52l41.772-22.875C91.913,29.408,92,29.72,92,30.044v29.085c0,0.724-0.367,1.384-0.982,1.766	L51.055,85.699C50.738,85.896,50.373,86,50,86V52z"/><path fill="#ee5490" d="M92,30.04v29.09c0,0.72-0.37,1.38-0.98,1.76L85,64.63v-31.8l6.77-3.71C91.91,29.41,92,29.72,92,30.04	z"/><polygon fill="#ef5684" points="85,32.83 85,64.63 79,68.35 79,36.11"/><polygon fill="#ef517b" points="79,36.11 79,68.35 73,72.08 73,39.4"/><polygon fill="#ef4a75" points="73,39.4 73,72.08 67,75.8 67,42.69"/><polygon fill="#f2ac0f" points="41,27.12 41,47.07 35,43.78 35,23.4"/><path fill="#f59173" d="M47,29.7v20.66l-6-3.29V27.12l0.93,0.58C43.49,28.67,45.21,29.34,47,29.7z"/><path fill="#f27c7c" d="M53,29.7v20.66L50,52l-3-1.64V29.7c0.98,0.2,1.99,0.3,3,0.3S52.02,29.9,53,29.7z"/><path fill="#f16e7c" d="M59,27.12v19.95l-6,3.29V29.7c1.79-0.36,3.51-1.03,5.07-2L59,27.12z"/><polygon fill="#ef6388" points="65,23.4 65,43.78 59,47.07 59,27.12"/><path fill="#ee5490" d="M91.77,29.12L65,43.78V23.4l8.43-5.23C73.6,18.06,73.8,18,74.01,18c0.2,0,0.4,0.06,0.57,0.16	l16.43,10.11C91.34,28.48,91.61,28.78,91.77,29.12z"/><path fill="#1f212b" d="M50,87c-0.559,0-1.105-0.156-1.582-0.451L8.455,61.744C7.544,61.179,7,60.201,7,59.128V30.044	c0-1.062,0.562-2.066,1.465-2.622l16.427-10.109c0.665-0.409,1.542-0.408,2.207,0.002l15.355,9.532	c2.268,1.407,4.877,2.151,7.546,2.151s5.278-0.744,7.546-2.151l15.354-9.53c0.669-0.414,1.544-0.413,2.209-0.004l16.427,10.109	C92.438,27.978,93,28.982,93,30.044v29.084c0,1.072-0.544,2.05-1.455,2.616L51.582,86.549C51.105,86.844,50.559,87,50,87z M25.416,18.165l0.524,0.852L9.514,29.125C9.196,29.32,9,29.672,9,30.044v29.084c0,0.376,0.19,0.718,0.51,0.917L49.473,84.85	c0.316,0.196,0.738,0.197,1.055,0L90.49,60.045C90.81,59.847,91,59.504,91,59.128V30.044c0-0.372-0.196-0.724-0.514-0.919	L74.007,19.001c-0.02,0-0.038,0.005-0.055,0.016l-15.352,9.529c-2.584,1.604-5.559,2.452-8.601,2.452s-6.017-0.848-8.601-2.452	l-15.354-9.53L25.416,18.165z"/><polygon fill="#1f212b" points="50,52.57 7.76,29.438 8.24,28.562 50,51.43 91.76,28.562 92.24,29.438"/><rect width="1" height="35" x="49.5" y="52" fill="#1f212b"/><path fill="#1f212b" d="M29.5,68.833c-0.091,0-0.182-0.024-0.264-0.075l-16.055-9.965C12.441,58.333,12,57.539,12,56.669	V35.5c0-0.276,0.224-0.5,0.5-0.5s0.5,0.224,0.5,0.5v21.169c0,0.522,0.265,0.999,0.709,1.274l16.055,9.965	c0.234,0.146,0.307,0.454,0.161,0.688C29.83,68.749,29.667,68.833,29.5,68.833z"/><path fill="#1f212b" d="M44.5,78.144c-0.091,0-0.182-0.024-0.264-0.075l-1-0.621c-0.234-0.146-0.307-0.454-0.161-0.688	c0.146-0.235,0.456-0.305,0.688-0.161l1,0.621c0.234,0.146,0.307,0.454,0.161,0.688C44.83,78.06,44.667,78.144,44.5,78.144z"/><path fill="#1f212b" d="M40.5,75.661c-0.091,0-0.182-0.024-0.264-0.075l-4-2.483c-0.234-0.146-0.307-0.454-0.161-0.688	c0.146-0.235,0.456-0.304,0.688-0.161l4,2.483c0.234,0.146,0.307,0.454,0.161,0.688C40.83,75.577,40.667,75.661,40.5,75.661z"/><path fill="#1f212b" d="M84.418,30c-0.09,0-0.181-0.024-0.262-0.074l-9.351-5.754c-0.489-0.3-1.093-0.298-1.577,0.003	l-5.465,3.392c-0.232,0.146-0.542,0.074-0.688-0.161c-0.146-0.234-0.073-0.543,0.161-0.688l5.465-3.392	c0.811-0.503,1.817-0.504,2.628-0.005l9.351,5.754c0.235,0.145,0.309,0.453,0.164,0.688C84.749,29.916,84.585,30,84.418,30z"/><path fill="#1f212b" d="M63.701,30c-0.167,0-0.33-0.084-0.425-0.236c-0.146-0.235-0.073-0.543,0.161-0.688l1.611-1	c0.233-0.144,0.542-0.074,0.688,0.161c0.146,0.235,0.073,0.543-0.161,0.688l-1.611,1C63.883,29.976,63.792,30,63.701,30z"/></svg>