<?xml version="1.0" encoding="iso-8859-1"?>
<!-- Uploaded to: SVG Repo, www.svgrepo.com, Generator: SVG Repo Mixer Tools -->
<svg fill="#000000" height="800px" width="800px" version="1.1" id="Capa_1" xmlns="http://www.w3.org/2000/svg" xmlns:xlink="http://www.w3.org/1999/xlink" 
	 viewBox="0 0 290 290" xml:space="preserve">
<g>
	<path id="circle29409" d="M25,0C11.236,0,0,11.237,0,25v200c0,13.764,11.236,25,25,25h15v35c0.001,2.762,2.24,5,5.002,4.999
		c1.134,0,2.235-0.386,3.121-1.095L96.754,250H265c13.764,0,25-11.236,25-25V25c0-13.764-11.236-25-25-25H25z M25,10h240
		c8.396,0,15,6.604,15,15v200c0,8.396-6.604,15-15,15H95c-1.135,0-2.237,0.387-3.123,1.096L50,274.598V245c0-2.761-2.239-5-5-5H25
		c-8.396,0-15-6.604-15-15V25C10,16.604,16.604,10,25,10z M25,22.5c-1.381,0-2.5,1.119-2.5,2.5v70
		c-0.02,1.381,1.084,2.516,2.465,2.535c1.381,0.02,2.516-1.084,2.535-2.465c0-0.024,0-0.047,0-0.071V27.5H95
		c1.381,0.02,2.516-1.084,2.535-2.465c0.02-1.381-1.084-2.516-2.465-2.535c-0.024,0-0.047,0-0.071,0H25z M83.334,101.666
		C70.487,101.666,60,112.153,60,125s10.487,23.332,23.334,23.332s23.332-10.485,23.332-23.332S96.181,101.666,83.334,101.666z
		 M145,101.666c-12.847,0-23.334,10.487-23.334,23.334s10.487,23.332,23.334,23.332s23.334-10.485,23.334-23.332
		S157.847,101.666,145,101.666z M206.666,101.666c-12.847,0-23.332,10.487-23.332,23.334s10.485,23.332,23.332,23.332
		S230,137.848,230,125S219.513,101.666,206.666,101.666z M83.334,108.332c9.244,0,16.666,7.424,16.666,16.668
		s-7.422,16.666-16.666,16.666S66.666,134.245,66.666,125S74.09,108.332,83.334,108.332z M145,108.332
		c9.244,0,16.666,7.424,16.666,16.668s-7.422,16.666-16.666,16.666s-16.666-7.422-16.666-16.666S135.756,108.332,145,108.332z
		 M206.666,108.332c9.244,0,16.668,7.424,16.668,16.668s-7.424,16.666-16.668,16.666c-9.244,0-16.666-7.422-16.666-16.666
		S197.422,108.332,206.666,108.332z M83.334,113.332c-6.424,0-11.668,5.242-11.668,11.666c0,0.921,0.746,1.667,1.667,1.667
		S75,125.919,75,124.999c0-4.622,3.712-8.332,8.334-8.332c0.921,0,1.667-0.746,1.667-1.667
		C85.001,114.079,84.255,113.332,83.334,113.332z M145,113.332c-6.424,0-11.666,5.242-11.666,11.666
		c-0.029,0.92,0.694,1.689,1.614,1.718c0.92,0.029,1.689-0.694,1.718-1.614c0.001-0.035,0.001-0.07,0-0.104
		c0-4.622,3.712-8.332,8.334-8.332c0.921,0,1.667-0.746,1.667-1.667C146.667,114.079,145.921,113.332,145,113.332z M206.666,113.332
		c-6.424,0-11.666,5.242-11.666,11.666c0,0.921,0.746,1.667,1.667,1.667s1.667-0.746,1.667-1.667c0-4.622,3.71-8.332,8.332-8.332
		c0.921,0,1.667-0.746,1.667-1.667C208.333,114.079,207.587,113.332,206.666,113.332L206.666,113.332z"/>
</g>
</svg>