<?xml version="1.0" encoding="iso-8859-1"?>
<!-- Uploaded to: SVG Repo, www.svgrepo.com, Generator: SVG Repo Mixer Tools -->
<!DOCTYPE svg PUBLIC "-//W3C//DTD SVG 1.1//EN" "http://www.w3.org/Graphics/SVG/1.1/DTD/svg11.dtd">
<svg fill="#000000" height="800px" width="800px" version="1.1" id="Capa_1" xmlns="http://www.w3.org/2000/svg" xmlns:xlink="http://www.w3.org/1999/xlink" 
	 viewBox="0 0 458.531 458.531" xml:space="preserve">
<g>
	<path d="M134.635,386.177h34.094c-5.004-6.988-8.861-14.348-11.398-22.696L134.635,386.177z"/>
	<path d="M369.513,291.963c-3.171-32.843-35.48-58.195-75.197-65.467l-70.664,70.665h141.147
		C367.605,297.16,369.782,294.739,369.513,291.963z"/>
	<path d="M362.328,308.509H212.303l-23.82,23.821l-0.001,0h173.846c6.578,0,11.911-5.333,11.911-11.911
		C374.238,313.841,368.906,308.509,362.328,308.509z"/>
	<path d="M229.265,0C102.551,0,0,102.539,0,229.265c0,126.715,102.539,229.266,229.265,229.266
		c126.717,0,229.266-102.541,229.266-229.266C458.531,102.549,355.99,0,229.265,0z M39.146,229.265
		c0-104.832,85.287-190.118,190.119-190.118c46.992,0,90.23,17.171,123.587,45.772L84.918,352.852
		C56.258,319.427,39.146,276.169,39.146,229.265z M366.927,360.261c1.793-5.375,2.731-11.399,2.578-12.996
		c-0.24-2.504-2.326-4.288-4.707-4.288H177.835l-7.201,7.201c1.289,9.58,5.137,18.614,10.935,26.658
		c4.019,5.577,10.505,8.89,17.379,8.89h138.19c-31.691,21.917-69.104,33.658-107.873,33.658c-46.99,0-90.228-17.17-123.587-45.772
		l267.935-267.934c28.651,33.415,45.772,76.668,45.772,123.586C419.385,278.802,400.233,325.278,366.927,360.261z"/>
	<path d="M231.902,106.627L172.62,81.416c-3.66-1.556-7.845-1.249-11.237,0.825c-3.393,2.074-5.574,5.659-5.858,9.625l-5.423,75.914
		H97.359c-6.849,0-12.744,5.602-12.667,12.45c0.026,2.317,0.695,4.476,1.835,6.313c0.919,1.481-0.093,3.392-1.836,3.392
		c-6.798,0-12.309,5.511-12.309,12.309c0,5.872,3.98,12.004,9.617,12.004c28.447,0,64.777,0,99.188,0l46.511-46.435
		c-0.218-0.011-0.433-0.033-0.653-0.033h-52.263l4.069-56.962l43.736,18.599c6.436,2.737,13.904-0.429,16.364-7.064
		C241.255,116.139,238.001,109.221,231.902,106.627z"/>
	<polygon points="99.075,296.228 169.439,225.977 90.785,225.977 	"/>
</g>
</svg>