<svg width="38" height="38" viewBox="0 0 38 38" fill="none" xmlns="http://www.w3.org/2000/svg">
<path d="M4.15625 31.4688H25.5312V35.0312C25.5312 35.3462 25.4061 35.6482 25.1834 35.8709C24.9607 36.0936 24.6587 36.2188 24.3438 36.2188H5.34375C5.02881 36.2188 4.72676 36.0936 4.50406 35.8709C4.28136 35.6482 4.15625 35.3462 4.15625 35.0312V31.4688Z" fill="#57A87C"/>
<path d="M4.15625 6.53125H25.5312V31.4688H4.15625V6.53125Z" fill="#E4FFF2"/>
<path d="M19 29.6875H27.3125V36.2188H19V29.6875Z" fill="#E4FFF2"/>
<path d="M19 27.9062H27.3125V29.6875H19V27.9062Z" fill="#57A87C"/>
<path d="M35.625 36.2188H23.75L24.9375 24.9375H34.4375L35.625 36.2188Z" fill="#57A87C"/>
<path d="M11.875 23.75C12.5308 23.75 13.0625 23.2183 13.0625 22.5625C13.0625 21.9067 12.5308 21.375 11.875 21.375C11.2192 21.375 10.6875 21.9067 10.6875 22.5625C10.6875 23.2183 11.2192 23.75 11.875 23.75Z" fill="white"/>
<path d="M17.8125 23.75C18.4683 23.75 19 23.2183 19 22.5625C19 21.9067 18.4683 21.375 17.8125 21.375C17.1567 21.375 16.625 21.9067 16.625 22.5625C16.625 23.2183 17.1567 23.75 17.8125 23.75Z" fill="white"/>
<path d="M19.5938 14.8438L19 19.5938H11.2812V14.8912V14.8438H19.5938Z" fill="#DFFFEF"/>
<path d="M13.0625 4.15625V7.71875C13.0625 8.19117 12.8748 8.64424 12.5408 8.97828C12.2067 9.31233 11.7537 9.5 11.2812 9.5C10.8088 9.5 10.3558 9.31233 10.0217 8.97828C9.68767 8.64424 9.5 8.19117 9.5 7.71875V4.15625H13.0625Z" fill="#57A87C"/>
<path d="M9.5 4.15625V7.71875C9.5 8.19117 9.31233 8.64424 8.97828 8.97828C8.64423 9.31233 8.19117 9.5 7.71875 9.5C7.24633 9.5 6.79326 9.31233 6.45922 8.97828C6.12517 8.64424 5.9375 8.19117 5.9375 7.71875V4.15625H9.5Z" fill="#57A87C"/>
<path d="M16.625 4.15625V7.71875C16.625 8.19117 16.4373 8.64424 16.1033 8.97828C15.7692 9.31233 15.3162 9.5 14.8438 9.5C14.3713 9.5 13.9183 9.31233 13.5842 8.97828C13.2502 8.64424 13.0625 8.19117 13.0625 7.71875V4.15625H16.625Z" fill="#57A87C"/>
<path d="M5.9375 4.15625V7.71875C5.9375 8.19117 5.74983 8.64423 5.41578 8.97828C5.08173 9.31233 4.62867 9.5 4.15625 9.5C3.68383 9.5 3.23077 9.31233 2.89672 8.97828C2.56267 8.64423 2.375 8.19117 2.375 7.71875L3.87986 4.70904C4.04925 4.37025 4.39551 4.15625 4.77428 4.15625H5.9375Z" fill="#57A87C"/>
<path d="M20.1875 4.15625V7.71875C20.1875 8.19117 19.9998 8.64424 19.6658 8.97828C19.3317 9.31233 18.8787 9.5 18.4062 9.5C17.9338 9.5 17.4808 9.31233 17.1467 8.97828C16.8127 8.64424 16.625 8.19117 16.625 7.71875V4.15625H20.1875Z" fill="#57A87C"/>
<path d="M25.5312 9.5C25.0588 9.5 24.6058 9.31233 24.2717 8.97828C23.9377 8.64423 23.75 8.19117 23.75 7.71875V4.15625H24.9132C25.292 4.15625 25.6383 4.37025 25.8076 4.70904L27.3125 7.71875C27.3125 8.19117 27.1248 8.64423 26.7908 8.97828C26.4567 9.31233 26.0037 9.5 25.5312 9.5Z" fill="#57A87C"/>
<path d="M23.75 4.15625V7.71875C23.75 8.19117 23.5623 8.64424 23.2283 8.97828C22.8942 9.31233 22.4412 9.5 21.9688 9.5C21.4963 9.5 21.0433 9.31233 20.7092 8.97828C20.3752 8.64424 20.1875 8.19117 20.1875 7.71875V4.15625H23.75Z" fill="#57A87C"/>
<path d="M25.5312 2.96875V4.15625H4.15625V2.96875C4.15719 2.65409 4.2826 2.35259 4.5051 2.1301C4.72759 1.9076 5.02909 1.78219 5.34375 1.78125H24.3438C24.6584 1.78219 24.9599 1.9076 25.1824 2.1301C25.4049 2.35259 25.5303 2.65409 25.5312 2.96875Z" fill="#57A87C"/>
<path d="M15.4375 33.25H14.25C13.9221 33.25 13.6562 33.5158 13.6562 33.8438C13.6562 34.1717 13.9221 34.4375 14.25 34.4375H15.4375C15.7654 34.4375 16.0312 34.1717 16.0312 33.8438C16.0312 33.5158 15.7654 33.25 15.4375 33.25Z" fill="white"/>
<path d="M17.8125 20.7812H11.875C11.5227 20.7812 11.1783 20.8857 10.8854 21.0814C10.5925 21.2772 10.3642 21.5554 10.2293 21.8808C10.0945 22.2063 10.0592 22.5645 10.128 22.91C10.1967 23.2555 10.3664 23.5729 10.6155 23.822C10.8646 24.0711 11.182 24.2408 11.5275 24.3095C11.873 24.3783 12.2312 24.343 12.5567 24.2082C12.8821 24.0733 13.1603 23.845 13.3561 23.5521C13.5518 23.2592 13.6563 22.9148 13.6563 22.5625C13.6543 22.3598 13.6173 22.1589 13.547 21.9687H16.1405C16.0702 22.1589 16.0332 22.3598 16.0313 22.5625C16.0313 22.9148 16.1357 23.2592 16.3315 23.5521C16.5272 23.845 16.8054 24.0733 17.1309 24.2082C17.4563 24.343 17.8145 24.3783 18.16 24.3095C18.5055 24.2408 18.8229 24.0711 19.072 23.822C19.3212 23.5729 19.4908 23.2555 19.5595 22.91C19.6283 22.5645 19.593 22.2063 19.4582 21.8808C19.3234 21.5554 19.095 21.2772 18.8021 21.0814C18.5092 20.8857 18.1648 20.7812 17.8125 20.7812ZM12.4688 22.5625C12.4688 22.6799 12.4339 22.7947 12.3687 22.8924C12.3034 22.99 12.2107 23.0661 12.1022 23.1111C11.9937 23.156 11.8743 23.1678 11.7592 23.1448C11.644 23.1219 11.5382 23.0654 11.4552 22.9823C11.3721 22.8993 11.3156 22.7935 11.2927 22.6783C11.2698 22.5632 11.2815 22.4438 11.3264 22.3353C11.3714 22.2268 11.4475 22.1341 11.5451 22.0688C11.6428 22.0036 11.7576 21.9687 11.875 21.9687C12.0325 21.9687 12.1835 22.0313 12.2948 22.1427C12.4062 22.254 12.4688 22.405 12.4688 22.5625ZM17.8125 23.1562C17.6951 23.1562 17.5803 23.1214 17.4826 23.0562C17.385 22.9909 17.3089 22.8982 17.264 22.7897C17.219 22.6812 17.2073 22.5618 17.2302 22.4467C17.2531 22.3315 17.3096 22.2257 17.3927 22.1427C17.4757 22.0596 17.5815 22.0031 17.6967 21.9802C17.8119 21.9572 17.9312 21.969 18.0397 22.0139C18.1482 22.0589 18.241 22.135 18.3062 22.2326C18.3714 22.3303 18.4063 22.4451 18.4063 22.5625C18.4063 22.72 18.3437 22.871 18.2324 22.9823C18.121 23.0937 17.97 23.1562 17.8125 23.1562Z" fill="#57A87C"/>
<path d="M20.0391 14.4519C19.9839 14.388 19.9155 14.3368 19.8386 14.302C19.7617 14.2671 19.6782 14.2494 19.5938 14.25H11.875V12.4688C11.875 12.3113 11.8124 12.1603 11.7011 12.0489C11.5897 11.9376 11.4387 11.875 11.2812 11.875H8.90625V13.0625H10.6875V19.5938C10.6875 19.7512 10.7501 19.9022 10.8614 20.0136C10.9728 20.1249 11.1238 20.1875 11.2812 20.1875H19C19.1448 20.1871 19.2846 20.1338 19.3928 20.0375C19.5011 19.9413 19.5704 19.8088 19.5878 19.665L20.1816 14.915C20.193 14.8321 20.1861 14.7477 20.1615 14.6677C20.1369 14.5877 20.0951 14.514 20.0391 14.4519ZM18.4775 19H11.875V15.4375H18.9228L18.4775 19Z" fill="#57A87C"/>
<path d="M32.6562 27.3125H31.4688V23.1562C31.4688 22.6838 31.2811 22.2308 30.947 21.8967C30.613 21.5627 30.1599 21.375 29.6875 21.375C29.2151 21.375 28.762 21.5627 28.428 21.8967C28.0939 22.2308 27.9062 22.6838 27.9062 23.1562V27.3125H26.7188V23.1562C26.7188 22.3689 27.0315 21.6138 27.5883 21.057C28.145 20.5003 28.9001 20.1875 29.6875 20.1875C30.4749 20.1875 31.23 20.5003 31.7867 21.057C32.3435 21.6138 32.6562 22.3689 32.6562 23.1562V27.3125Z" fill="#57A87C"/>
</svg>
