<?xml version="1.0" encoding="UTF-8" standalone="no"?> <svg width="64" height="64" viewBox="0 0 64 64" fill="none" xmlns="http://www.w3.org/2000/svg">
<path d="M43 40.1602C42.2054 40.1659 41.4263 40.3797 40.74 40.7802C40.1346 40.431 39.457 40.2256 38.7597 40.1799C38.0623 40.1342 37.3637 40.2495 36.718 40.5167C36.0722 40.7839 35.4965 41.196 35.0353 41.7212C34.5742 42.2463 34.2399 42.8704 34.0583 43.5452C33.8766 44.2201 33.8526 44.9277 33.988 45.6133C34.1233 46.299 34.4145 46.9443 34.8389 47.4996C35.2633 48.0548 35.8097 48.505 36.4359 48.8155C37.062 49.126 37.7511 49.2884 38.45 49.2902C39.2572 49.288 40.0486 49.0668 40.74 48.6502C41.4236 49.0581 42.2039 49.2756 43 49.2802C44.2094 49.2802 45.3692 48.7997 46.2244 47.9446C47.0796 47.0894 47.56 45.9295 47.56 44.7202C47.56 43.5108 47.0796 42.3509 46.2244 41.4958C45.3692 40.6406 44.2094 40.1602 43 40.1602V40.1602ZM36.39 44.7102C36.3926 44.1655 36.6108 43.6441 36.9969 43.26C37.3829 42.8758 37.9054 42.6601 38.45 42.6602C38.6086 42.6598 38.7666 42.68 38.92 42.7202C38.6047 43.3397 38.4404 44.025 38.4404 44.7202C38.4404 45.4153 38.6047 46.1006 38.92 46.7202C38.767 46.7637 38.609 46.7872 38.45 46.7902C38.1756 46.7928 37.9035 46.7409 37.6494 46.6374C37.3952 46.534 37.1642 46.381 36.9698 46.1875C36.7753 45.9939 36.6212 45.7637 36.5165 45.51C36.4119 45.2564 36.3586 44.9845 36.36 44.7102H36.39ZM43 46.7802C42.5902 46.7921 42.1862 46.6815 41.8396 46.4625C41.4931 46.2436 41.2197 45.9262 41.0546 45.5509C40.8894 45.1757 40.8399 44.7598 40.9125 44.3563C40.9851 43.9528 41.1764 43.5802 41.462 43.2861C41.7475 42.9919 42.1144 42.7897 42.5155 42.7052C42.9167 42.6208 43.3339 42.6579 43.7138 42.8119C44.0937 42.9659 44.4191 43.2297 44.6482 43.5697C44.8773 43.9096 44.9998 44.3102 45 44.7202C45.0002 45.2563 44.7914 45.7713 44.418 46.156C44.0445 46.5406 43.5359 46.7645 43 46.7802V46.7802Z" fill="black"/>
<path d="M56.44 9.86011H13.78C12.5103 9.87064 11.2961 10.3817 10.4011 11.2824C9.50608 12.183 9.00259 13.4004 9 14.6701V16.0801H8C6.60843 16.0828 5.2746 16.6367 4.29061 17.6207C3.30662 18.6047 2.75264 19.9385 2.75 21.3301V48.8901C2.75264 50.2817 3.30662 51.6155 4.29061 52.5995C5.2746 53.5835 6.60843 54.1375 8 54.1401H49.78C51.1664 54.1296 52.4925 53.5721 53.47 52.589C54.4476 51.6058 54.9974 50.2765 55 48.8901V47.8901H56.41C57.6849 47.8875 58.9068 47.3798 59.8083 46.4784C60.7097 45.5769 61.2174 44.355 61.22 43.0801V14.6701C61.2174 13.4004 60.7139 12.183 59.8189 11.2824C58.9239 10.3817 57.7097 9.87064 56.44 9.86011V9.86011ZM8 18.5801H49.78C50.5085 18.5827 51.2065 18.8733 51.7216 19.3885C52.2368 19.9036 52.5274 20.6016 52.53 21.3301V22.2101H5.25V21.3301C5.25 20.6008 5.53973 19.9013 6.05546 19.3856C6.57118 18.8698 7.27065 18.5801 8 18.5801V18.5801ZM5.25 24.7101H52.53V27.0001H5.25V24.7101ZM49.78 51.6401H8C7.27065 51.6401 6.57118 51.3504 6.05546 50.8347C5.53973 50.3189 5.25 49.6195 5.25 48.8901V29.4701H52.53V48.8901C52.53 49.6195 52.2403 50.3189 51.7245 50.8347C51.2088 51.3504 50.5093 51.6401 49.78 51.6401ZM58.78 43.1101C58.78 43.7228 58.5366 44.3103 58.1034 44.7435C57.6702 45.1767 57.0827 45.4201 56.47 45.4201H55V21.3301C54.9974 19.9385 54.4434 18.6047 53.4594 17.6207C52.4754 16.6367 51.1416 16.0828 49.75 16.0801H11.47V14.6701C11.4726 14.0583 11.7169 13.4722 12.1495 13.0396C12.5821 12.607 13.1682 12.3627 13.78 12.3601H56.44C57.0526 12.3601 57.6402 12.6035 58.0734 13.0367C58.5066 13.4699 58.75 14.0575 58.75 14.6701L58.78 43.1101Z" fill="black"/>
</svg>
