<?xml version="1.0" encoding="UTF-8" standalone="no"?> <svg width="48" height="48" viewBox="0 0 48 48" fill="none" xmlns="http://www.w3.org/2000/svg">
<path d="M41 14H37V7C37 6.20435 36.6839 5.44129 36.1213 4.87868C35.5587 4.31607 34.7956 4 34 4H14C13.2044 4 12.4413 4.31607 11.8787 4.87868C11.3161 5.44129 11 6.20435 11 7V14H7C6.20435 14 5.44129 14.3161 4.87868 14.8787C4.31607 15.4413 4 16.2044 4 17V34C4 34.7956 4.31607 35.5587 4.87868 36.1213C5.44129 36.6839 6.20435 37 7 37H11V41C11 41.7957 11.3161 42.5587 11.8787 43.1213C12.4413 43.6839 13.2044 44 14 44H34C34.7956 44 35.5587 43.6839 36.1213 43.1213C36.6839 42.5587 37 41.7957 37 41V37H41C41.7957 37 42.5587 36.6839 43.1213 36.1213C43.6839 35.5587 44 34.7956 44 34V17C44 16.2044 43.6839 15.4413 43.1213 14.8787C42.5587 14.3161 41.7957 14 41 14ZM13 7C13 6.73478 13.1054 6.48043 13.2929 6.29289C13.4804 6.10536 13.7348 6 14 6H34C34.2652 6 34.5196 6.10536 34.7071 6.29289C34.8946 6.48043 35 6.73478 35 7V14H13V7ZM35 41C35 41.2652 34.8946 41.5196 34.7071 41.7071C34.5196 41.8946 34.2652 42 34 42H14C13.7348 42 13.4804 41.8946 13.2929 41.7071C13.1054 41.5196 13 41.2652 13 41V29H35V41ZM42 34C42 34.2652 41.8946 34.5196 41.7071 34.7071C41.5196 34.8946 41.2652 35 41 35H37V28C37 27.7348 36.8946 27.4804 36.7071 27.2929C36.5196 27.1054 36.2652 27 36 27H12C11.7348 27 11.4804 27.1054 11.2929 27.2929C11.1054 27.4804 11 27.7348 11 28V35H7C6.73478 35 6.48043 34.8946 6.29289 34.7071C6.10536 34.5196 6 34.2652 6 34V17C6 16.7348 6.10536 16.4804 6.29289 16.2929C6.48043 16.1054 6.73478 16 7 16H41C41.2652 16 41.5196 16.1054 41.7071 16.2929C41.8946 16.4804 42 16.7348 42 17V34Z" fill="black"/>
<path d="M16 34H32C32.2652 34 32.5196 33.8946 32.7071 33.7071C32.8946 33.5196 33 33.2652 33 33C33 32.7348 32.8946 32.4804 32.7071 32.2929C32.5196 32.1054 32.2652 32 32 32H16C15.7348 32 15.4804 32.1054 15.2929 32.2929C15.1054 32.4804 15 32.7348 15 33C15 33.2652 15.1054 33.5196 15.2929 33.7071C15.4804 33.8946 15.7348 34 16 34V34Z" fill="black"/>
<path d="M16 39H32C32.2652 39 32.5196 38.8946 32.7071 38.7071C32.8946 38.5196 33 38.2652 33 38C33 37.7348 32.8946 37.4804 32.7071 37.2929C32.5196 37.1054 32.2652 37 32 37H16C15.7348 37 15.4804 37.1054 15.2929 37.2929C15.1054 37.4804 15 37.7348 15 38C15 38.2652 15.1054 38.5196 15.2929 38.7071C15.4804 38.8946 15.7348 39 16 39V39Z" fill="black"/>
<path d="M35 19H30C29.7348 19 29.4804 19.1054 29.2929 19.2929C29.1054 19.4804 29 19.7348 29 20C29 20.2652 29.1054 20.5196 29.2929 20.7071C29.4804 20.8946 29.7348 21 30 21H35C35.2652 21 35.5196 20.8946 35.7071 20.7071C35.8946 20.5196 36 20.2652 36 20C36 19.7348 35.8946 19.4804 35.7071 19.2929C35.5196 19.1054 35.2652 19 35 19Z" fill="black"/>
<path d="M39 21C39.5523 21 40 20.5523 40 20C40 19.4477 39.5523 19 39 19C38.4477 19 38 19.4477 38 20C38 20.5523 38.4477 21 39 21Z" fill="black"/>
</svg>
