<svg width="38" height="38" viewBox="0 0 38 38" fill="none" xmlns="http://www.w3.org/2000/svg">
<g clip-path="url(#clip0_1529_934)">
<path d="M35.3324 11.9521H34.2917V23.3915C34.2917 25.1725 33.2546 26.7831 31.1756 26.7831H10.8066V27.3269C10.8066 28.9016 12.5977 30.4911 14.4369 30.4911H30.01L35.9678 33.994L35.1038 30.4911H35.3324C37.1704 30.4911 37.9998 28.9053 37.9998 27.3269V14.6677C37.9998 13.093 37.1704 11.9521 35.3324 11.9521Z" fill="#73D3F0"/>
<path d="M28.1351 4.00488H4.47699C2.39547 4.00488 0 5.85396 0 7.63629V21.9741C0 23.6155 2.0296 24.8008 3.97639 24.9837L2.70943 29.7931L10.8278 25.0171H28.1351C30.2166 25.0171 32.1374 23.7551 32.1374 21.9741V10.3741V7.63629C32.1374 5.85396 30.2153 4.00488 28.1351 4.00488ZM8.08626 16.1079C6.90583 16.1079 5.94913 15.1513 5.94913 13.9709C5.94913 12.7905 6.90583 11.8338 8.08626 11.8338C9.26546 11.8338 10.2234 12.7905 10.2234 13.9709C10.2234 15.1513 9.26546 16.1079 8.08626 16.1079ZM16.0687 16.1079C14.8883 16.1079 13.9316 15.1513 13.9316 13.9709C13.9316 12.7905 14.8883 11.8338 16.0687 11.8338C17.2491 11.8338 18.2058 12.7905 18.2058 13.9709C18.2058 15.1513 17.2491 16.1079 16.0687 16.1079ZM24.0524 16.1079C22.8719 16.1079 21.914 15.1513 21.914 13.9709C21.914 12.7905 22.8719 11.8338 24.0524 11.8338C25.2303 11.8338 26.1895 12.7905 26.1895 13.9709C26.1895 15.1513 25.2303 16.1079 24.0524 16.1079Z" fill="#428AB2"/>
</g>
<defs>
<clipPath id="clip0_1529_934">
<rect width="38" height="38" fill="white"/>
</clipPath>
</defs>
</svg>
