<?xml version="1.0" encoding="iso-8859-1"?>
<!-- Uploaded to: SVG Repo, www.svgrepo.com, Generator: SVG Repo Mixer Tools -->
<svg height="800px" width="800px" version="1.1" id="Layer_1" xmlns="http://www.w3.org/2000/svg" xmlns:xlink="http://www.w3.org/1999/xlink" 
	 viewBox="0 0 511.999 511.999" xml:space="preserve">
<path style="fill:#FF4328;" d="M320.846,224.495v-52.796c-7.291-1.688-32.552-8.646-41.07-8.646h-48.635
	c-8.517,0-33.551,5.877-40.841,7.565v53.877H320.846z"/>
<polygon style="fill:#663310;" points="321.698,247.318 321.698,224.606 304.459,224.495 207.539,224.495 190.302,224.495 
	190.302,247.318 179.666,450.54 332.327,450.54 "/>
<path style="fill:#CF8F3D;" d="M255.997,7.421c28.334,0,51.304,22.971,51.304,51.306c0,28.336-22.97,51.306-51.304,51.306
	s-51.304-22.97-51.304-51.306C204.694,30.393,227.662,7.421,255.997,7.421L255.997,7.421z"/>
<path style="fill:#FF4328;" d="M204.767,61.46c-0.048-0.906-0.073-1.816-0.073-2.733c0-28.335,22.97-51.306,51.304-51.306
	s51.304,22.971,51.304,51.306c0,0.918-0.026,1.828-0.073,2.733H204.767z"/>
<path d="M255.997,119.398c29.919,0,54.763-22.126,59.043-50.872h32.678c4.775,0,8.646-3.871,8.646-8.646s-3.871-8.646-8.646-8.646
	h-32.632C310.96,22.311,286.041,0,255.997,0c-32.918,0-59.699,26.781-59.699,59.699C196.297,92.616,223.079,119.398,255.997,119.398
	z M255.997,17.292c20.485,0,37.622,14.6,41.556,33.94H225.99c-4.776,0-8.646,3.871-8.646,8.646s3.87,8.646,8.646,8.646h71.483
	c-4.073,19.16-21.12,33.58-41.477,33.58c-23.384,0-42.407-19.024-42.407-42.405C213.59,36.316,232.613,17.292,255.997,17.292z
	 M424.824,338.819l-37.187-91.645c-17.219-42.431-44.939-91.135-106.977-91.135h-49.326c-62.028,0-89.753,48.703-106.978,91.135
	l-37.181,91.645c-1.795,4.426,0.337,9.468,4.762,11.263c1.065,0.431,2.165,0.637,3.247,0.637c3.416,0,6.652-2.038,8.015-5.397
	l37.18-91.644c12.166-29.97,25.562-50.793,41.596-63.721v37.632l-10.573,224.729c-0.111,2.362,0.749,4.665,2.381,6.374
	c1.631,1.71,3.892,2.677,6.256,2.677h34.453v33.336h-27.818c-4.775,0-8.646,3.871-8.646,8.646c0,4.775,3.871,8.646,8.646,8.646
	h36.422c0.014,0,0.028,0.002,0.042,0.002c4.775,0,8.646-3.871,8.646-8.646v-41.984h48.425v41.984c0,4.775,3.87,8.646,8.646,8.646
	c0.014,0,0.027-0.002,0.042-0.002h36.422c4.776,0,8.646-3.871,8.646-8.646c0-4.775-3.87-8.646-8.646-8.646h-27.818v-33.336h34.452
	c0.008-0.001,0.014-0.001,0.022,0c4.775,0,8.646-3.871,8.646-8.646c0-0.347-0.021-0.691-0.061-1.027l-10.544-224.108V189.95
	c16.037,12.926,29.433,33.751,41.596,63.724l37.186,91.645c1.795,4.426,6.837,6.553,11.263,4.761
	C424.488,348.287,426.619,343.244,424.824,338.819z M189.102,444.078l9.769-207.638h114.251l9.769,207.638H189.102z
	 M312.725,219.148H199.268v-39.658c9.71-4.162,20.323-6.156,32.071-6.156h49.32c11.746,0,22.357,1.994,32.066,6.153V219.148z
	 M235.073,312.022c0.001,10.147,3.223,17.594,6.254,19.449c4.073,2.492,5.355,7.814,2.863,11.887
	c-1.631,2.665-4.473,4.135-7.384,4.135c-1.538,0-3.095-0.411-4.504-1.272c-9.093-5.563-14.521-18.348-14.521-34.199
	c-0.001-15.855,5.427-28.643,14.521-34.207c4.072-2.496,9.395-1.212,11.887,2.861c2.492,4.073,1.212,9.395-2.862,11.887
	C238.296,294.422,235.072,301.872,235.073,312.022z M291.525,312.023c-0.001,15.851-5.429,28.635-14.519,34.199
	c-1.408,0.861-2.967,1.272-4.505,1.272c-2.911,0-5.753-1.469-7.384-4.134c-2.492-4.073-1.212-9.395,2.862-11.889
	c3.032-1.855,6.252-9.3,6.253-19.449c0.001-10.152-3.221-17.602-6.253-19.457c-4.072-2.493-5.354-7.815-2.861-11.889
	c2.492-4.073,7.814-5.355,11.888-2.861C286.098,283.382,291.526,296.168,291.525,312.023z"/>
</svg>