<?xml version="1.0" encoding="iso-8859-1"?>
<!-- Uploaded to: SVG Repo, www.svgrepo.com, Generator: SVG Repo Mixer Tools -->
<svg version="1.1" id="Layer_1" xmlns="http://www.w3.org/2000/svg" xmlns:xlink="http://www.w3.org/1999/xlink" 
	 viewBox="0 0 485 485" xml:space="preserve">
<g>
	<g id="XMLID_31_">
		<g>
			<rect x="62.5" y="147.5" style="fill:#A67C52;" width="150" height="35"/>
			<rect x="312.5" y="142.5" style="fill:#E7ECED;" width="50" height="90"/>
			<rect x="97.5" y="252.5" style="fill:#E7ECED;" width="60" height="85"/>
			<polygon style="fill:#A67C52;" points="477.5,322.5 477.5,432.5 327.5,432.5 327.5,322.5 427.5,322.5 			"/>
			<polygon style="fill:#C69C6D;" points="212.5,182.5 212.5,252.5 157.5,252.5 97.5,252.5 62.5,252.5 62.5,182.5 			"/>
			<polygon style="fill:#C69C6D;" points="427.5,142.5 427.5,322.5 327.5,322.5 327.5,432.5 247.5,432.5 247.5,252.5 247.5,142.5 
				297.5,142.5 312.5,142.5 312.5,232.5 362.5,232.5 362.5,142.5 			"/>
			<polygon style="fill:#A67C52;" points="427.5,52.5 427.5,142.5 362.5,142.5 312.5,142.5 297.5,142.5 297.5,52.5 			"/>
			<polygon style="fill:#A67C52;" points="247.5,252.5 247.5,432.5 7.5,432.5 7.5,252.5 62.5,252.5 97.5,252.5 97.5,337.5 
				157.5,337.5 157.5,252.5 212.5,252.5 			"/>
		</g>
		<g>
			<path d="M435,315V150v-7.5V45H290v90h-50v110h-20V140H55v105H0v195h485V315H435z M305,60h115v75H305V60z M355,150v75h-35v-75H355
				z M70,245v-55h135v55H70z M150,260v70h-45v-70H150z M205,155v20H70v-20H205z M15,425V260h75v85h75v-85h75v165H15z M255,425V150
				h50v90h65v-90h50v165H320v110H255z M470,425H335v-95h135V425z"/>
			<rect x="167.5" y="210" width="20" height="15"/>
			<rect x="137.5" y="210" width="20" height="15"/>
			<rect x="407.5" y="355" width="40" height="15"/>
			<rect x="377.5" y="385" width="70" height="15"/>
			<rect x="377.5" y="100" width="20" height="15"/>
			<rect x="347.5" y="100" width="20" height="15"/>
		</g>
	</g>
</g>
</svg>