<svg width="38" height="38" viewBox="0 0 38 38" fill="none" xmlns="http://www.w3.org/2000/svg">
<path d="M37.4692 12.0745L19.6578 0.1995C19.2589 -0.0664999 18.7388 -0.0664999 18.3398 0.1995L0.528499 12.0745C0.0939033 12.3642 -0.100834 12.9057 0.0511556 13.4069C0.203145 13.908 0.66624 14.25 1.1887 14.25H3.16695V36.4158C3.16695 37.2922 3.87703 38 4.75097 38H6.33499V20.1875C6.33499 19.5344 6.86932 19 7.52241 19H30.48C31.1331 19 31.6674 19.5344 31.6674 20.1875V38H33.2491C34.123 38 34.8331 37.2922 34.8331 36.4158V14.25H36.8113C37.3338 14.25 37.7969 13.908 37.9489 13.4069C38.1009 12.9057 37.9061 12.3642 37.4692 12.0745Z" fill="#EA7BA4"/>
<path d="M14.65 30.083V31.2705C14.65 31.926 14.118 32.458 13.4626 32.458C12.8071 32.458 12.2752 31.926 12.2752 31.2705V30.083H9.50371C9.06674 30.083 8.71289 30.4369 8.71289 30.8739V37.208C8.71289 37.645 9.06674 37.9989 9.50371 37.9989H17.4191C17.856 37.9989 18.2099 37.645 18.2099 37.208V30.8739C18.2099 30.4369 17.856 30.083 17.4191 30.083H14.65Z" fill="#FFBEC5"/>
<path d="M25.732 30.083V31.2705C25.732 31.926 25.2001 32.458 24.5446 32.458C23.8891 32.458 23.3572 31.926 23.3572 31.2705V30.083H20.5857C20.1488 30.083 19.7949 30.4369 19.7949 30.8739V37.208C19.7949 37.645 20.1488 37.9989 20.5857 37.9989H28.5035C28.9404 37.9989 29.2943 37.645 29.2943 37.208V30.8739C29.2943 30.4369 28.9404 30.083 28.5035 30.083H25.732Z" fill="#FFBEC5"/>
<path d="M20.1871 20.583V21.7705C20.1871 22.426 19.6551 22.958 18.9997 22.958C18.3442 22.958 17.8123 22.426 17.8123 21.7705V20.583H15.0408C14.6039 20.583 14.25 20.9369 14.25 21.3739V27.708C14.25 28.145 14.6039 28.4989 15.0408 28.4989H22.9562C23.3955 28.4989 23.7494 28.145 23.7494 27.708V21.3739C23.7494 20.9369 23.3955 20.583 22.9585 20.583H20.1871Z" fill="#FFBEC5"/>
</svg>
